<?xml version="1.0" encoding="utf-8"?>
<!-- Generator: Adobe Illustrator 21.1.0, SVG Export Plug-In . SVG Version: 6.00 Build 0)  -->
<svg version="1.1" id="Camada_1" xmlns="http://www.w3.org/2000/svg" xmlns:xlink="http://www.w3.org/1999/xlink" x="0px" y="0px"
	 viewBox="0 0 32 44" style="enable-background:new 0 0 32 44;" xml:space="preserve">
<style type="text/css">
	.st0{fill:#1C1C1C;}
	.st1{fill:none;stroke:#1C1C1C;stroke-width:0.194;stroke-miterlimit:2.414;}
</style>
<g>
	<polygon class="st0" points="10.4,10 10.4,10.7 11,10.7 11,10.6 11.6,10.7 20.5,10.7 20.8,10.7 20.5,10.7 20.8,10.7 21.1,10.6 
		21.1,10.7 21.7,10.7 21.7,10 	"/>
	<path class="st1" d="M20.5,10.7h-8.9L11,10.6l0,0.1h-0.6V10h11.4v0.7h-0.7l0-0.1 M20.5,10.7l0.6-0.1L20.5,10.7z"/>
	<polygon class="st0" points="10.4,10.8 10.4,15.9 11,15.9 11,11.2 10.9,10.8 	"/>
	<polygon class="st1" points="10.9,10.8 11,11.2 11,15.9 10.4,15.9 10.4,10.8 	"/>
	<polygon class="st0" points="21.2,10.8 21.1,11.2 21.1,15.9 21.7,15.9 21.7,10.8 	"/>
	<polygon class="st1" points="21.2,10.8 21.1,11.2 21.1,15.9 21.7,15.9 21.7,10.8 	"/>
	<rect x="2.8" y="15.2" class="st0" width="1.5" height="0.7"/>
	<rect x="2.8" y="15.2" class="st1" width="1.5" height="0.7"/>
	<rect x="3.4" y="16" class="st0" width="0.9" height="13.7"/>
	<rect x="3.4" y="16" class="st1" width="0.9" height="13.7"/>
	<rect x="2.8" y="15.2" class="st0" width="1.5" height="0.7"/>
	<rect x="2.8" y="15.2" class="st1" width="1.5" height="0.7"/>
	<rect x="8.7" y="15.2" class="st0" width="1.5" height="0.7"/>
	<rect x="8.7" y="15.2" class="st1" width="1.5" height="0.7"/>
	<rect x="8" y="15.2" class="st0" width="3" height="0.7"/>
	<rect x="8" y="15.2" class="st1" width="3" height="0.7"/>
	<rect x="2.8" y="31.6" class="st0" width="26.3" height="0.7"/>
	<rect x="2.8" y="31.6" class="st1" width="26.3" height="0.7"/>
	<rect x="27.7" y="15.2" class="st0" width="1.5" height="0.7"/>
	<rect x="27.7" y="15.2" class="st1" width="1.5" height="0.7"/>
	<rect x="27.7" y="16" class="st0" width="0.8" height="13.7"/>
	<rect x="27.7" y="16" class="st1" width="0.8" height="13.7"/>
	<rect x="4.2" y="9.7" class="st0" width="0.7" height="6.2"/>
	<rect x="4.2" y="9.7" class="st1" width="0.7" height="6.2"/>
	<rect x="8" y="9.7" class="st0" width="0.7" height="6.2"/>
	<rect x="8" y="9.7" class="st1" width="0.7" height="6.2"/>
	<rect x="27.2" y="9.7" class="st0" width="0.7" height="6.2"/>
	<rect x="27.2" y="9.7" class="st1" width="0.7" height="6.2"/>
	<rect x="21.8" y="15.2" class="st0" width="1.6" height="0.7"/>
	<rect x="21.8" y="15.2" class="st1" width="1.6" height="0.7"/>
	<rect x="23.3" y="9.7" class="st0" width="0.7" height="6.2"/>
	<rect x="23.3" y="9.7" class="st1" width="0.7" height="6.2"/>
	<polygon class="st0" points="3,21.2 2.9,21.2 2.9,21.9 3.3,22.3 3.3,21.2 	"/>
	<polygon class="st1" points="2.9,21.9 2.9,21.2 3,21.2 3.3,21.2 3.3,22.3 	"/>
	<polygon class="st0" points="3,25.7 2.9,25.7 2.9,26.4 3.3,26.8 3.3,25.7 	"/>
	<polygon class="st1" points="2.9,26.4 2.9,25.7 3,25.7 3.3,25.7 3.3,26.8 	"/>
	<polygon class="st0" points="3,15.2 2.9,15.2 2.9,15.9 3.3,16.4 3.3,15.2 	"/>
	<polygon class="st1" points="2.9,15.9 2.9,15.2 3,15.2 3.3,15.2 3.3,16.4 	"/>
	<polygon class="st0" points="14.4,9.6 14,9.9 15.4,9.9 15,9.6 	"/>
	<polygon class="st1" points="15,9.6 14.4,9.6 14,9.9 15.4,9.9 	"/>
	<polygon class="st0" points="17,9.6 16.6,9.9 18,9.9 17.6,9.6 	"/>
	<polygon class="st1" points="17.6,9.6 17,9.6 16.6,9.9 18,9.9 	"/>
	<polygon class="st0" points="29,21.1 28.7,21.1 28.7,22.3 29.1,21.8 29.1,21.1 	"/>
	<polygon class="st1" points="29.1,21.8 29.1,21.1 29,21.1 28.7,21.1 28.7,22.3 	"/>
	<polygon class="st0" points="29,25.6 28.7,25.6 28.7,26.8 29.1,26.3 29.1,25.6 	"/>
	<polygon class="st1" points="29.1,26.3 29.1,25.6 29,25.6 28.7,25.6 28.7,26.8 	"/>
	<polygon class="st0" points="29,15.2 28.7,15.2 28.7,16.3 29.1,15.9 29.1,15.2 	"/>
	<polygon class="st1" points="29.1,15.9 29.1,15.2 29,15.2 28.7,15.2 28.7,16.3 	"/>
	<path class="st0" d="M27.8,29.9h0.8l0.6,0.4V32h-0.8v-1.2L27.8,29.9z M27.8,29.9l0.6,0.9 M4.2,29.9H3.4l-0.6,0.4V32h0.8v-1.2
		L4.2,29.9z M4.2,29.9l-0.6,0.9"/>
	<path class="st1" d="M27.8,29.9h0.8l0.6,0.4V32h-0.8v-1.2L27.8,29.9z M27.8,29.9l0.6,0.9 M4.2,29.9H3.4l-0.6,0.4V32h0.8v-1.2
		L4.2,29.9z M4.2,29.9l-0.6,0.9"/>
	<line class="st1" x1="3.3" y1="29.8" x2="4.1" y2="29.8"/>
	<rect x="4.2" y="9.7" class="st0" width="1.1" height="0.7"/>
	<rect x="4.2" y="9.7" class="st1" width="1.1" height="0.7"/>
	<rect x="7.5" y="9.7" class="st0" width="1.1" height="0.7"/>
	<rect x="7.5" y="9.7" class="st1" width="1.1" height="0.7"/>
	<path class="st0" d="M7.4,8.8c0.2-0.2,0.4-0.5,0.4-0.9c0-0.7-0.6-1.3-1.4-1.3c-0.7,0-1.4,0.6-1.4,1.3c0,0.3,0.1,0.6,0.4,0.9l0,1.6
		H4.7V9.2C4.5,8.8,4.3,8.4,4.3,7.9c0-1.2,1-2.2,2.1-2.2c1.2,0,2.1,1,2.1,2.2c0,0.5-0.2,0.9-0.4,1.3l0,1.2H7.4L7.4,8.8z"/>
	<path class="st1" d="M7.4,8.8c0.2-0.2,0.4-0.5,0.4-0.9c0-0.7-0.6-1.3-1.4-1.3c-0.7,0-1.4,0.6-1.4,1.3c0,0.3,0.1,0.6,0.4,0.9l0,1.6
		H4.7V9.2C4.5,8.8,4.3,8.4,4.3,7.9c0-1.2,1-2.2,2.1-2.2c1.2,0,2.1,1,2.1,2.2c0,0.5-0.2,0.9-0.4,1.3l0,1.2H7.4L7.4,8.8z"/>
	<polygon class="st0" points="6.3,3.2 6.1,5.7 6.8,5.7 6.6,3.2 	"/>
	<polygon class="st1" points="6.1,5.7 6.3,3.2 6.6,3.2 6.8,5.7 	"/>
	<polygon class="st0" points="25.4,3.2 25.2,5.7 25.9,5.7 25.7,3.2 	"/>
	<polygon class="st1" points="25.2,5.7 25.4,3.2 25.7,3.2 25.9,5.7 	"/>
	<path class="st0" d="M26.6,8.8c0.2-0.2,0.4-0.5,0.4-0.9c0-0.7-0.6-1.3-1.4-1.3c-0.7,0-1.4,0.6-1.4,1.3c0,0.3,0.1,0.6,0.4,0.9l0,1.6
		h-0.8V9.2c-0.2-0.4-0.4-0.8-0.4-1.3c0-1.2,1-2.2,2.1-2.2c1.2,0,2.1,1,2.1,2.2c0,0.5-0.2,0.9-0.4,1.3l0,1.2h-0.8V8.8z"/>
	<path class="st1" d="M26.6,8.8c0.2-0.2,0.4-0.5,0.4-0.9c0-0.7-0.6-1.3-1.4-1.3c-0.7,0-1.4,0.6-1.4,1.3c0,0.3,0.1,0.6,0.4,0.9l0,1.6
		h-0.8V9.2c-0.2-0.4-0.4-0.8-0.4-1.3c0-1.2,1-2.2,2.1-2.2c1.2,0,2.1,1,2.1,2.2c0,0.5-0.2,0.9-0.4,1.3l0,1.2h-0.8V8.8z"/>
	<polygon class="st0" points="10.7,9.5 10.4,9.8 11.5,9.8 11.2,9.5 	"/>
	<polygon class="st1" points="11.2,9.5 10.7,9.5 10.4,9.8 11.5,9.8 	"/>
	<polygon class="st0" points="9.9,10.3 9.9,10.8 10.2,11.2 10.2,10.1 	"/>
	<polygon class="st1" points="9.9,10.8 9.9,10.3 10.2,10.1 10.2,11.2 	"/>
	<polygon class="st0" points="20.9,9.5 20.6,9.8 21.7,9.8 21.5,9.5 	"/>
	<polygon class="st1" points="20.9,9.5 21.5,9.5 21.7,9.8 20.6,9.8 	"/>
	<polygon class="st0" points="21.9,11.2 22.2,10.8 22.2,10.3 21.9,10.1 	"/>
	<polygon class="st1" points="22.2,10.8 22.2,10.3 21.9,10.1 21.9,11.2 	"/>
	<path class="st0" d="M6.5,4.6c0.2,0,0.4,0.2,0.4,0.4c0,0.2-0.2,0.4-0.4,0.4C6.2,5.5,6,5.3,6,5.1C6,4.8,6.2,4.6,6.5,4.6"/>
	<ellipse class="st1" cx="6.5" cy="5.1" rx="0.4" ry="0.4"/>
	<path class="st0" d="M25.6,4.6c0.2,0,0.4,0.2,0.4,0.4c0,0.2-0.2,0.4-0.4,0.4c-0.2,0-0.4-0.2-0.4-0.4C25.1,4.8,25.3,4.6,25.6,4.6"/>
	<ellipse class="st1" cx="25.6" cy="5.1" rx="0.4" ry="0.4"/>
	<path class="st0" d="M6.4,2.9c0.1,0,0.2,0.1,0.2,0.2c0,0.1-0.1,0.2-0.2,0.2c-0.1,0-0.2-0.1-0.2-0.2C6.3,3,6.4,2.9,6.4,2.9"/>
	<path class="st0" d="M25.6,2.9c0.1,0,0.2,0.1,0.2,0.2c0,0.1-0.1,0.2-0.2,0.2c-0.1,0-0.2-0.1-0.2-0.2C25.4,3,25.5,2.9,25.6,2.9"/>
	<path class="st0" d="M25.8,36.6v0.6h2.4l-2.5,3.1V41H29v-0.6h-2.5l2.5-3.1v-0.6H25.8z M21.7,36.6v2.8c0,1.1,0.6,1.7,1.7,1.7
		c1.1,0,1.7-0.6,1.7-1.7v-2.8h-0.7v2.7c0,0.7-0.3,1.1-1,1.1c-0.7,0-1-0.4-1-1.1v-2.7H21.7z M18.3,37.2h1c0.5,0,0.8,0.2,0.8,0.7
		c0,0.5-0.3,0.7-0.8,0.7h-1V37.2z M17.6,36.6V41h0.7v-1.8h1.1c0.6,0,0.7,0.2,0.7,0.7l0,0.5c0,0.2,0,0.4,0.1,0.6H21v-0.1
		c-0.2-0.1-0.2-0.2-0.2-0.5l0-0.6c0-0.5-0.1-0.7-0.5-0.9c0.4-0.2,0.6-0.5,0.6-1c0-0.8-0.5-1.2-1.2-1.2c0,0-0.1,0-0.2,0H17.6z
		 M16.9,38c-0.1-0.9-0.7-1.5-1.8-1.5c-1.3,0-2,0.8-2,2.3c0,1.4,0.8,2.3,2,2.3c1.1,0,1.8-0.7,1.9-1.7h-0.7c0,0.6-0.5,1-1.1,1
		c-0.8,0-1.3-0.6-1.3-1.7c0-1,0.5-1.6,1.3-1.6c0.6,0,1,0.3,1.1,0.8H16.9z M10.5,37.1c0.8,0,1.3,0.6,1.3,1.7c0,1.1-0.5,1.7-1.3,1.7
		c-0.8,0-1.3-0.6-1.3-1.7C9.2,37.7,9.7,37.1,10.5,37.1 M10.5,36.5c-1.3,0-2.1,0.9-2.1,2.3c0,1.4,0.8,2.3,2.1,2.3s2.1-0.9,2.1-2.3
		C12.6,37.4,11.8,36.5,10.5,36.5 M7,41h0.7v-4.4H7V41z M3.4,36.6V41h0.7v-1.9h2v-0.6h-2v-1.2h2.2v-0.6H3.4z"/>
</g>
</svg>
