<?xml version="1.0" encoding="utf-8"?>
<!-- Generator: Adobe Illustrator 21.1.0, SVG Export Plug-In . SVG Version: 6.00 Build 0)  -->
<svg version="1.1" id="Camada_1" xmlns="http://www.w3.org/2000/svg" xmlns:xlink="http://www.w3.org/1999/xlink" x="0px" y="0px"
	 viewBox="0 0 117 29" style="enable-background:new 0 0 117 29;" xml:space="preserve">
<style type="text/css">
	.st0{fill:#1D1D1B;}
</style>
<g>
	<g>
		<path class="st0" d="M27.1,6.5l1.8-0.1C29,6.6,29,6.9,29.2,7c0.2,0.2,0.5,0.4,0.8,0.4c0.3,0,0.5-0.1,0.6-0.2s0.2-0.3,0.2-0.4
			c0-0.2-0.1-0.3-0.2-0.4c-0.1-0.1-0.5-0.2-1-0.4c-0.8-0.2-1.4-0.4-1.8-0.7c-0.4-0.3-0.5-0.7-0.5-1.2c0-0.3,0.1-0.6,0.3-0.9
			c0.2-0.3,0.5-0.5,0.8-0.7c0.4-0.2,0.9-0.2,1.5-0.2c0.8,0,1.4,0.1,1.8,0.4c0.4,0.3,0.7,0.8,0.7,1.4l-1.8,0.1c0-0.3-0.1-0.5-0.3-0.6
			c-0.2-0.1-0.4-0.2-0.6-0.2c-0.2,0-0.4,0-0.5,0.1s-0.2,0.2-0.2,0.3c0,0.1,0,0.2,0.1,0.3c0.1,0.1,0.3,0.2,0.6,0.2
			c0.8,0.2,1.4,0.4,1.8,0.5c0.4,0.2,0.6,0.4,0.8,0.7c0.2,0.3,0.2,0.6,0.2,0.9c0,0.4-0.1,0.8-0.3,1.1s-0.5,0.6-0.9,0.8
			C31,8.5,30.6,8.6,30,8.6c-1,0-1.8-0.2-2.2-0.6C27.4,7.6,27.2,7.1,27.1,6.5z"/>
		<path class="st0" d="M38.4,6.7H35c0,0.3,0.1,0.5,0.2,0.6c0.2,0.2,0.4,0.3,0.6,0.3c0.2,0,0.3,0,0.5-0.1c0.1-0.1,0.2-0.1,0.3-0.3
			l1.7,0.2c-0.3,0.4-0.6,0.8-0.9,1c-0.4,0.2-0.9,0.3-1.6,0.3c-0.6,0-1-0.1-1.4-0.2s-0.6-0.4-0.8-0.8c-0.2-0.4-0.3-0.8-0.3-1.3
			c0-0.7,0.2-1.2,0.7-1.7S35,4,35.8,4c0.6,0,1.1,0.1,1.5,0.3s0.6,0.5,0.8,0.8c0.2,0.4,0.3,0.8,0.3,1.4V6.7z M36.7,5.9
			c0-0.3-0.1-0.6-0.3-0.7C36.3,5,36.1,5,35.8,5c-0.3,0-0.5,0.1-0.6,0.3C35.1,5.4,35,5.6,35,5.9H36.7z"/>
		<path class="st0" d="M42.5,6.8l1.6,0.2c-0.1,0.3-0.2,0.6-0.4,0.9s-0.5,0.4-0.8,0.6s-0.7,0.2-1.2,0.2c-0.5,0-0.9,0-1.2-0.1
			c-0.3-0.1-0.6-0.2-0.8-0.4s-0.4-0.4-0.5-0.7C39,7.1,39,6.7,39,6.3c0-0.5,0.1-0.8,0.2-1.1c0.1-0.2,0.3-0.4,0.5-0.6
			c0.2-0.2,0.4-0.3,0.6-0.4C40.6,4,41,4,41.5,4c0.7,0,1.3,0.1,1.6,0.4C43.6,4.6,43.8,5,44,5.5l-1.6,0.2c0-0.2-0.1-0.3-0.3-0.4
			c-0.1-0.1-0.3-0.1-0.5-0.1c-0.3,0-0.5,0.1-0.7,0.3c-0.2,0.2-0.3,0.5-0.3,0.9c0,0.4,0.1,0.6,0.3,0.8s0.4,0.3,0.7,0.3
			c0.2,0,0.4-0.1,0.6-0.2C42.3,7.2,42.4,7,42.5,6.8z"/>
		<path class="st0" d="M44.9,4.1h1.6v0.7c0.2-0.3,0.3-0.5,0.5-0.6C47.1,4,47.3,4,47.5,4c0.2,0,0.5,0.1,0.8,0.2l-0.5,1.2
			c-0.2-0.1-0.4-0.1-0.5-0.1c-0.2,0-0.4,0.1-0.5,0.3c-0.2,0.3-0.3,0.7-0.3,1.4v1.5h-1.7V4.1z"/>
		<path class="st0" d="M53.7,6.7h-3.4c0,0.3,0.1,0.5,0.2,0.6c0.2,0.2,0.4,0.3,0.6,0.3c0.2,0,0.3,0,0.5-0.1c0.1-0.1,0.2-0.1,0.3-0.3
			l1.7,0.2c-0.3,0.4-0.6,0.8-0.9,1c-0.4,0.2-0.9,0.3-1.6,0.3c-0.6,0-1-0.1-1.4-0.2s-0.6-0.4-0.8-0.8c-0.2-0.4-0.3-0.8-0.3-1.3
			c0-0.7,0.2-1.2,0.7-1.7S50.3,4,51.1,4c0.6,0,1.1,0.1,1.5,0.3s0.6,0.5,0.8,0.8c0.2,0.4,0.3,0.8,0.3,1.4V6.7z M52,5.9
			c0-0.3-0.1-0.6-0.3-0.7C51.5,5,51.4,5,51.1,5c-0.3,0-0.5,0.1-0.6,0.3c-0.1,0.1-0.2,0.3-0.2,0.6H52z"/>
		<path class="st0" d="M56.5,2.4v1.7h0.9v1.2h-0.9v1.6c0,0.2,0,0.3,0.1,0.4c0.1,0.1,0.2,0.1,0.3,0.1c0.1,0,0.3,0,0.5-0.1l0.1,1.2
			c-0.4,0.1-0.8,0.1-1.2,0.1c-0.4,0-0.7-0.1-0.9-0.2c-0.2-0.1-0.3-0.3-0.4-0.5c-0.1-0.2-0.1-0.6-0.1-1.1V5.3h-0.6V4.1h0.6V3.3
			L56.5,2.4z"/>
		<path class="st0" d="M59.8,5.5l-1.6-0.2c0.1-0.3,0.1-0.5,0.3-0.7c0.1-0.2,0.3-0.3,0.5-0.4c0.2-0.1,0.4-0.2,0.6-0.2
			C59.8,4,60.1,4,60.4,4c0.5,0,0.9,0,1.2,0.1s0.6,0.2,0.8,0.4c0.1,0.1,0.3,0.3,0.3,0.5c0.1,0.2,0.1,0.4,0.1,0.7v2c0,0.2,0,0.4,0,0.5
			c0,0.1,0.1,0.3,0.2,0.5h-1.6c-0.1-0.1-0.1-0.2-0.1-0.3s0-0.2-0.1-0.3c-0.2,0.2-0.4,0.4-0.7,0.5c-0.3,0.1-0.6,0.2-1,0.2
			c-0.5,0-0.9-0.1-1.2-0.4C58.2,8,58,7.7,58,7.3c0-0.3,0.1-0.6,0.3-0.8c0.2-0.2,0.6-0.4,1.1-0.5c0.6-0.1,1-0.2,1.2-0.3
			c0.2-0.1,0.4-0.1,0.6-0.2c0-0.2,0-0.4-0.1-0.4C61,5,60.9,5,60.7,5c-0.3,0-0.5,0-0.6,0.1C59.9,5.2,59.8,5.3,59.8,5.5z M61.2,6.4
			c-0.2,0.1-0.5,0.2-0.7,0.2c-0.3,0.1-0.6,0.2-0.7,0.3c-0.1,0.1-0.1,0.2-0.1,0.3c0,0.1,0,0.2,0.1,0.3c0.1,0.1,0.2,0.1,0.4,0.1
			c0.2,0,0.4,0,0.5-0.1c0.2-0.1,0.3-0.2,0.3-0.3s0.1-0.3,0.1-0.5V6.4z"/>
		<path class="st0" d="M63.9,4.1h1.6v0.7c0.2-0.3,0.3-0.5,0.5-0.6C66.1,4,66.3,4,66.6,4c0.2,0,0.5,0.1,0.8,0.2l-0.5,1.2
			c-0.2-0.1-0.4-0.1-0.5-0.1c-0.2,0-0.4,0.1-0.5,0.3c-0.2,0.3-0.3,0.7-0.3,1.4v1.5h-1.7V4.1z"/>
		<path class="st0" d="M67.7,2.4h1.7v1.2h-1.7V2.4z M67.7,4.1h1.7v4.4h-1.7V4.1z"/>
		<path class="st0" d="M72.1,5.5l-1.6-0.2c0.1-0.3,0.1-0.5,0.3-0.7c0.1-0.2,0.3-0.3,0.5-0.4c0.2-0.1,0.4-0.2,0.6-0.2
			C72.1,4,72.4,4,72.7,4c0.5,0,0.9,0,1.2,0.1s0.6,0.2,0.8,0.4c0.1,0.1,0.3,0.3,0.3,0.5c0.1,0.2,0.1,0.4,0.1,0.7v2c0,0.2,0,0.4,0,0.5
			c0,0.1,0.1,0.3,0.2,0.5h-1.6c-0.1-0.1-0.1-0.2-0.1-0.3s0-0.2-0.1-0.3c-0.2,0.2-0.4,0.4-0.7,0.5c-0.3,0.1-0.6,0.2-1,0.2
			c-0.5,0-0.9-0.1-1.2-0.4c-0.3-0.2-0.4-0.5-0.4-0.9c0-0.3,0.1-0.6,0.3-0.8c0.2-0.2,0.6-0.4,1.1-0.5c0.6-0.1,1-0.2,1.2-0.3
			c0.2-0.1,0.4-0.1,0.6-0.2c0-0.2,0-0.4-0.1-0.4C73.3,5,73.2,5,73,5c-0.3,0-0.5,0-0.6,0.1C72.2,5.2,72.1,5.3,72.1,5.5z M73.5,6.4
			c-0.2,0.1-0.5,0.2-0.7,0.2c-0.3,0.1-0.6,0.2-0.7,0.3C72.1,7,72,7.1,72,7.2c0,0.1,0,0.2,0.1,0.3c0.1,0.1,0.2,0.1,0.4,0.1
			c0.2,0,0.4,0,0.5-0.1c0.2-0.1,0.3-0.2,0.3-0.3s0.1-0.3,0.1-0.5V6.4z"/>
		<path class="st0" d="M83.7,2.4v6.1h-1.6V7.8c-0.2,0.3-0.4,0.5-0.6,0.6c-0.2,0.1-0.5,0.2-0.8,0.2c-0.6,0-1.1-0.2-1.4-0.7
			c-0.3-0.5-0.5-1-0.5-1.7c0-0.7,0.2-1.3,0.5-1.7C79.7,4.2,80.2,4,80.7,4c0.3,0,0.5,0,0.7,0.1s0.4,0.2,0.6,0.4V2.4H83.7z M82,6.3
			c0-0.3-0.1-0.6-0.2-0.8c-0.1-0.2-0.3-0.3-0.6-0.3c-0.2,0-0.4,0.1-0.5,0.2c-0.1,0.2-0.2,0.4-0.2,0.8c0,0.4,0.1,0.6,0.2,0.8
			s0.3,0.3,0.5,0.3c0.2,0,0.4-0.1,0.5-0.3S82,6.6,82,6.3z"/>
		<path class="st0" d="M89.6,6.7h-3.4c0,0.3,0.1,0.5,0.2,0.6c0.2,0.2,0.4,0.3,0.6,0.3c0.2,0,0.3,0,0.5-0.1c0.1-0.1,0.2-0.1,0.3-0.3
			l1.7,0.2c-0.3,0.4-0.6,0.8-0.9,1c-0.4,0.2-0.9,0.3-1.6,0.3c-0.6,0-1-0.1-1.4-0.2s-0.6-0.4-0.8-0.8c-0.2-0.4-0.3-0.8-0.3-1.3
			c0-0.7,0.2-1.2,0.7-1.7S86.2,4,87,4c0.6,0,1.1,0.1,1.5,0.3s0.6,0.5,0.8,0.8c0.2,0.4,0.3,0.8,0.3,1.4V6.7z M87.9,5.9
			c0-0.3-0.1-0.6-0.3-0.7C87.5,5,87.3,5,87.1,5c-0.3,0-0.5,0.1-0.6,0.3c-0.1,0.1-0.2,0.3-0.2,0.6H87.9z"/>
	</g>
	<g>
		<path class="st0" d="M5.1,14.8v-1.3H8v2.6c-0.6,0.4-1,0.6-1.5,0.8C6.1,17,5.6,17.1,5,17.1c-0.7,0-1.3-0.1-1.8-0.4
			c-0.5-0.2-0.8-0.6-1.1-1.1c-0.3-0.5-0.4-1-0.4-1.7c0-0.7,0.1-1.2,0.4-1.7s0.7-0.9,1.2-1.1c0.4-0.2,1-0.3,1.7-0.3
			c0.7,0,1.2,0.1,1.5,0.2s0.6,0.3,0.8,0.6c0.2,0.3,0.4,0.6,0.5,1l-1.8,0.3c-0.1-0.2-0.2-0.4-0.4-0.5c-0.2-0.1-0.4-0.2-0.7-0.2
			c-0.4,0-0.7,0.1-1,0.4c-0.2,0.3-0.4,0.7-0.4,1.4c0,0.7,0.1,1.1,0.4,1.4c0.2,0.3,0.6,0.4,1,0.4c0.2,0,0.4,0,0.6-0.1
			c0.2-0.1,0.4-0.2,0.7-0.3v-0.6H5.1z"/>
		<path class="st0" d="M13.9,15.2h-3.4c0,0.3,0.1,0.5,0.2,0.6c0.2,0.2,0.4,0.3,0.6,0.3c0.2,0,0.3,0,0.5-0.1c0.1-0.1,0.2-0.1,0.3-0.3
			l1.7,0.2c-0.3,0.4-0.6,0.8-0.9,1c-0.4,0.2-0.9,0.3-1.6,0.3c-0.6,0-1-0.1-1.4-0.2s-0.6-0.4-0.8-0.8c-0.2-0.4-0.3-0.8-0.3-1.3
			c0-0.7,0.2-1.2,0.7-1.7s1.1-0.6,1.8-0.6c0.6,0,1.1,0.1,1.5,0.3s0.6,0.5,0.8,0.8c0.2,0.4,0.3,0.8,0.3,1.4V15.2z M12.2,14.4
			c0-0.3-0.1-0.6-0.3-0.7c-0.1-0.1-0.3-0.2-0.6-0.2c-0.3,0-0.5,0.1-0.6,0.3c-0.1,0.1-0.2,0.3-0.2,0.6H12.2z"/>
		<path class="st0" d="M14.4,15.8l1.7-0.2c0.1,0.2,0.2,0.3,0.3,0.4c0.1,0.1,0.3,0.1,0.5,0.1c0.2,0,0.4,0,0.5-0.1
			c0.1-0.1,0.1-0.2,0.1-0.3c0-0.1-0.1-0.2-0.2-0.3c-0.1,0-0.3-0.1-0.7-0.2c-0.6-0.1-1-0.2-1.2-0.3s-0.4-0.2-0.6-0.4
			c-0.2-0.2-0.2-0.4-0.2-0.7c0-0.3,0.1-0.5,0.3-0.8c0.2-0.2,0.4-0.4,0.7-0.5c0.3-0.1,0.7-0.2,1.2-0.2c0.5,0,0.9,0,1.2,0.1
			s0.5,0.2,0.6,0.4c0.2,0.2,0.3,0.4,0.4,0.7l-1.6,0.2c0-0.1-0.1-0.2-0.2-0.3c-0.1-0.1-0.3-0.1-0.5-0.1c-0.2,0-0.3,0-0.4,0.1
			c-0.1,0.1-0.1,0.2-0.1,0.2c0,0.1,0.1,0.2,0.2,0.2c0.1,0.1,0.4,0.1,0.7,0.1c0.6,0.1,1,0.2,1.3,0.3s0.5,0.3,0.6,0.5
			c0.1,0.2,0.2,0.4,0.2,0.7c0,0.3-0.1,0.5-0.2,0.7s-0.4,0.4-0.7,0.6c-0.3,0.1-0.8,0.2-1.4,0.2c-0.8,0-1.4-0.1-1.7-0.3
			C14.7,16.5,14.5,16.2,14.4,15.8z"/>
		<path class="st0" d="M21.9,10.9v1.7h0.9v1.2h-0.9v1.6c0,0.2,0,0.3,0.1,0.4c0.1,0.1,0.2,0.1,0.3,0.1c0.1,0,0.3,0,0.5-0.1l0.1,1.2
			c-0.4,0.1-0.8,0.1-1.2,0.1c-0.4,0-0.7-0.1-0.9-0.2c-0.2-0.1-0.3-0.3-0.4-0.5c-0.1-0.2-0.1-0.6-0.1-1.1v-1.6h-0.6v-1.2h0.6v-0.8
			L21.9,10.9z"/>
		<path class="st0" d="M25.2,14l-1.6-0.2c0.1-0.3,0.1-0.5,0.3-0.7c0.1-0.2,0.3-0.3,0.5-0.4c0.2-0.1,0.4-0.2,0.6-0.2
			c0.3,0,0.6-0.1,0.9-0.1c0.5,0,0.9,0,1.2,0.1s0.6,0.2,0.8,0.4c0.1,0.1,0.3,0.3,0.3,0.5c0.1,0.2,0.1,0.4,0.1,0.7v2
			c0,0.2,0,0.4,0,0.5c0,0.1,0.1,0.3,0.2,0.5H27c-0.1-0.1-0.1-0.2-0.1-0.3s0-0.2-0.1-0.3c-0.2,0.2-0.4,0.4-0.7,0.5
			c-0.3,0.1-0.6,0.2-1,0.2c-0.5,0-0.9-0.1-1.2-0.4c-0.3-0.2-0.4-0.5-0.4-0.9c0-0.3,0.1-0.6,0.3-0.8c0.2-0.2,0.6-0.4,1.1-0.5
			c0.6-0.1,1-0.2,1.2-0.3c0.2-0.1,0.4-0.1,0.6-0.2c0-0.2,0-0.4-0.1-0.4c-0.1-0.1-0.2-0.1-0.5-0.1c-0.3,0-0.5,0-0.6,0.1
			C25.4,13.7,25.3,13.8,25.2,14z M26.8,10.9h0.7c0,0.1,0,0.1,0,0.2c0,0.3-0.1,0.5-0.2,0.7c-0.2,0.2-0.4,0.3-0.6,0.3
			c-0.2,0-0.4-0.1-0.8-0.2c-0.2-0.1-0.4-0.1-0.5-0.1c-0.1,0-0.1,0-0.2,0.1c0,0-0.1,0.1-0.1,0.3h-0.6c0-0.1,0-0.1,0-0.2
			c0-0.3,0.1-0.5,0.2-0.7c0.2-0.2,0.4-0.3,0.6-0.3c0.1,0,0.2,0,0.3,0c0.1,0,0.2,0.1,0.5,0.2c0.2,0.1,0.4,0.1,0.5,0.1
			c0.1,0,0.1,0,0.2-0.1C26.8,11.1,26.8,11,26.8,10.9z M26.7,14.9c-0.2,0.1-0.5,0.2-0.7,0.2c-0.3,0.1-0.6,0.2-0.7,0.3
			c-0.1,0.1-0.1,0.2-0.1,0.3c0,0.1,0,0.2,0.1,0.3c0.1,0.1,0.2,0.1,0.4,0.1c0.2,0,0.4,0,0.5-0.1c0.2-0.1,0.3-0.2,0.3-0.3
			s0.1-0.3,0.1-0.5V14.9z"/>
		<path class="st0" d="M29.2,14.8c0-0.7,0.2-1.2,0.7-1.7s1.1-0.7,1.8-0.7c0.9,0,1.6,0.3,2,0.8c0.4,0.4,0.5,0.9,0.5,1.5
			c0,0.7-0.2,1.2-0.7,1.7c-0.5,0.4-1.1,0.7-1.9,0.7c-0.7,0-1.3-0.2-1.7-0.5C29.4,16.1,29.2,15.5,29.2,14.8z M30.9,14.8
			c0,0.4,0.1,0.7,0.2,0.9s0.4,0.3,0.6,0.3c0.2,0,0.4-0.1,0.6-0.3c0.2-0.2,0.2-0.5,0.2-0.9c0-0.4-0.1-0.7-0.2-0.9
			c-0.2-0.2-0.4-0.3-0.6-0.3c-0.2,0-0.5,0.1-0.6,0.3C30.9,14.1,30.9,14.4,30.9,14.8z"/>
		<path class="st0" d="M42.5,10.9V17h-1.6v-0.7c-0.2,0.3-0.4,0.5-0.6,0.6c-0.2,0.1-0.5,0.2-0.8,0.2c-0.6,0-1.1-0.2-1.4-0.7
			c-0.3-0.5-0.5-1-0.5-1.7c0-0.7,0.2-1.3,0.5-1.7c0.4-0.4,0.8-0.6,1.3-0.6c0.3,0,0.5,0,0.7,0.1s0.4,0.2,0.6,0.4v-2.1H42.5z
			 M40.8,14.8c0-0.3-0.1-0.6-0.2-0.8c-0.1-0.2-0.3-0.3-0.6-0.3c-0.2,0-0.4,0.1-0.5,0.2c-0.1,0.2-0.2,0.4-0.2,0.8
			c0,0.4,0.1,0.6,0.2,0.8s0.3,0.3,0.5,0.3c0.2,0,0.4-0.1,0.5-0.3S40.8,15.2,40.8,14.8z"/>
		<path class="st0" d="M43.4,14.8c0-0.7,0.2-1.2,0.7-1.7s1.1-0.7,1.8-0.7c0.9,0,1.6,0.3,2,0.8c0.4,0.4,0.5,0.9,0.5,1.5
			c0,0.7-0.2,1.2-0.7,1.7c-0.5,0.4-1.1,0.7-1.9,0.7c-0.7,0-1.3-0.2-1.7-0.5C43.6,16.1,43.4,15.5,43.4,14.8z M45,14.8
			c0,0.4,0.1,0.7,0.2,0.9s0.4,0.3,0.6,0.3c0.2,0,0.4-0.1,0.6-0.3c0.2-0.2,0.2-0.5,0.2-0.9c0-0.4-0.1-0.7-0.2-0.9
			c-0.2-0.2-0.4-0.3-0.6-0.3c-0.2,0-0.5,0.1-0.6,0.3C45.1,14.1,45,14.4,45,14.8z"/>
		<path class="st0" d="M51.8,10.9h5.7v1.5h-1.9V17h-1.9v-4.6h-1.9V10.9z"/>
		<path class="st0" d="M57.9,12.6h1.6v0.7c0.2-0.3,0.3-0.5,0.5-0.6c0.2-0.1,0.4-0.2,0.6-0.2c0.2,0,0.5,0.1,0.8,0.2l-0.5,1.2
			c-0.2-0.1-0.4-0.1-0.5-0.1c-0.2,0-0.4,0.1-0.5,0.3c-0.2,0.3-0.3,0.7-0.3,1.4V17h-1.7V12.6z"/>
		<path class="st0" d="M63.3,14l-1.6-0.2c0.1-0.3,0.1-0.5,0.3-0.7c0.1-0.2,0.3-0.3,0.5-0.4c0.2-0.1,0.4-0.2,0.6-0.2
			c0.3,0,0.6-0.1,0.9-0.1c0.5,0,0.9,0,1.2,0.1s0.6,0.2,0.8,0.4c0.1,0.1,0.3,0.3,0.3,0.5c0.1,0.2,0.1,0.4,0.1,0.7v2
			c0,0.2,0,0.4,0,0.5c0,0.1,0.1,0.3,0.2,0.5h-1.6C65,16.9,65,16.8,65,16.7s0-0.2-0.1-0.3c-0.2,0.2-0.4,0.4-0.7,0.5
			c-0.3,0.1-0.6,0.2-1,0.2c-0.5,0-0.9-0.1-1.2-0.4c-0.3-0.2-0.4-0.5-0.4-0.9c0-0.3,0.1-0.6,0.3-0.8c0.2-0.2,0.6-0.4,1.1-0.5
			c0.6-0.1,1-0.2,1.2-0.3c0.2-0.1,0.4-0.1,0.6-0.2c0-0.2,0-0.4-0.1-0.4c-0.1-0.1-0.2-0.1-0.5-0.1c-0.3,0-0.5,0-0.6,0.1
			C63.5,13.7,63.4,13.8,63.3,14z M64.8,14.9c-0.2,0.1-0.5,0.2-0.7,0.2c-0.3,0.1-0.6,0.2-0.7,0.3c-0.1,0.1-0.1,0.2-0.1,0.3
			c0,0.1,0,0.2,0.1,0.3c0.1,0.1,0.2,0.1,0.4,0.1c0.2,0,0.4,0,0.5-0.1c0.2-0.1,0.3-0.2,0.3-0.3s0.1-0.3,0.1-0.5V14.9z"/>
		<path class="st0" d="M67.6,10.9h1.7V13c0.2-0.2,0.4-0.3,0.6-0.4s0.5-0.1,0.7-0.1c0.5,0,1,0.2,1.3,0.6c0.4,0.4,0.5,0.9,0.5,1.7
			c0,0.5-0.1,0.9-0.2,1.3s-0.4,0.6-0.7,0.8c-0.3,0.2-0.6,0.3-0.9,0.3c-0.3,0-0.6-0.1-0.8-0.2c-0.2-0.1-0.4-0.3-0.6-0.6V17h-1.6V10.9
			z M69.3,14.8c0,0.4,0.1,0.7,0.2,0.8c0.1,0.2,0.3,0.3,0.5,0.3c0.2,0,0.4-0.1,0.5-0.3s0.2-0.5,0.2-0.8c0-0.3-0.1-0.6-0.2-0.8
			c-0.1-0.2-0.3-0.2-0.5-0.2c-0.2,0-0.4,0.1-0.6,0.3C69.3,14.2,69.3,14.4,69.3,14.8z"/>
		<path class="st0" d="M74.8,14l-1.6-0.2c0.1-0.3,0.1-0.5,0.3-0.7c0.1-0.2,0.3-0.3,0.5-0.4c0.2-0.1,0.4-0.2,0.6-0.2
			c0.3,0,0.6-0.1,0.9-0.1c0.5,0,0.9,0,1.2,0.1s0.6,0.2,0.8,0.4c0.1,0.1,0.3,0.3,0.3,0.5c0.1,0.2,0.1,0.4,0.1,0.7v2
			c0,0.2,0,0.4,0,0.5c0,0.1,0.1,0.3,0.2,0.5h-1.6c-0.1-0.1-0.1-0.2-0.1-0.3s0-0.2-0.1-0.3c-0.2,0.2-0.4,0.4-0.7,0.5
			c-0.3,0.1-0.6,0.2-1,0.2c-0.5,0-0.9-0.1-1.2-0.4c-0.3-0.2-0.4-0.5-0.4-0.9c0-0.3,0.1-0.6,0.3-0.8c0.2-0.2,0.6-0.4,1.1-0.5
			c0.6-0.1,1-0.2,1.2-0.3c0.2-0.1,0.4-0.1,0.6-0.2c0-0.2,0-0.4-0.1-0.4c-0.1-0.1-0.2-0.1-0.5-0.1c-0.3,0-0.5,0-0.6,0.1
			C74.9,13.7,74.8,13.8,74.8,14z M76.2,14.9c-0.2,0.1-0.5,0.2-0.7,0.2c-0.3,0.1-0.6,0.2-0.7,0.3c-0.1,0.1-0.1,0.2-0.1,0.3
			c0,0.1,0,0.2,0.1,0.3c0.1,0.1,0.2,0.1,0.4,0.1c0.2,0,0.4,0,0.5-0.1c0.2-0.1,0.3-0.2,0.3-0.3s0.1-0.3,0.1-0.5V14.9z"/>
		<path class="st0" d="M79,10.9h1.7V17H79V10.9z"/>
		<path class="st0" d="M81.7,10.9h1.7v2.2c0.2-0.2,0.5-0.4,0.7-0.5c0.2-0.1,0.5-0.2,0.8-0.2c0.5,0,0.8,0.1,1.1,0.4
			c0.3,0.3,0.4,0.7,0.4,1.3V17h-1.7v-2.4c0-0.3-0.1-0.5-0.2-0.6c-0.1-0.1-0.2-0.2-0.4-0.2c-0.2,0-0.4,0.1-0.5,0.2s-0.2,0.4-0.2,0.8
			V17h-1.7V10.9z"/>
		<path class="st0" d="M87.2,14.8c0-0.7,0.2-1.2,0.7-1.7s1.1-0.7,1.8-0.7c0.9,0,1.6,0.3,2,0.8c0.4,0.4,0.5,0.9,0.5,1.5
			c0,0.7-0.2,1.2-0.7,1.7c-0.5,0.4-1.1,0.7-1.9,0.7c-0.7,0-1.3-0.2-1.7-0.5C87.5,16.1,87.2,15.5,87.2,14.8z M88.9,14.8
			c0,0.4,0.1,0.7,0.2,0.9s0.4,0.3,0.6,0.3c0.2,0,0.4-0.1,0.6-0.3c0.2-0.2,0.2-0.5,0.2-0.9c0-0.4-0.1-0.7-0.2-0.9
			c-0.2-0.2-0.4-0.3-0.6-0.3c-0.2,0-0.5,0.1-0.6,0.3C89,14.1,88.9,14.4,88.9,14.8z"/>
		<path class="st0" d="M100.8,15.2h-3.4c0,0.3,0.1,0.5,0.2,0.6c0.2,0.2,0.4,0.3,0.6,0.3c0.2,0,0.3,0,0.5-0.1
			c0.1-0.1,0.2-0.1,0.3-0.3l1.7,0.2c-0.3,0.4-0.6,0.8-0.9,1c-0.4,0.2-0.9,0.3-1.6,0.3c-0.6,0-1-0.1-1.4-0.2s-0.6-0.4-0.8-0.8
			c-0.2-0.4-0.3-0.8-0.3-1.3c0-0.7,0.2-1.2,0.7-1.7s1.1-0.6,1.8-0.6c0.6,0,1.1,0.1,1.5,0.3s0.6,0.5,0.8,0.8c0.2,0.4,0.3,0.8,0.3,1.4
			V15.2z M99.1,14.4c0-0.3-0.1-0.6-0.3-0.7c-0.1-0.1-0.3-0.2-0.6-0.2c-0.3,0-0.5,0.1-0.6,0.3c-0.1,0.1-0.2,0.3-0.2,0.6H99.1z"/>
		<path class="st0" d="M109.1,10.9V17h-1.6v-0.7c-0.2,0.3-0.4,0.5-0.6,0.6c-0.2,0.1-0.5,0.2-0.8,0.2c-0.6,0-1.1-0.2-1.4-0.7
			c-0.3-0.5-0.5-1-0.5-1.7c0-0.7,0.2-1.3,0.5-1.7c0.4-0.4,0.8-0.6,1.3-0.6c0.3,0,0.5,0,0.7,0.1s0.4,0.2,0.6,0.4v-2.1H109.1z
			 M107.4,14.8c0-0.3-0.1-0.6-0.2-0.8c-0.1-0.2-0.3-0.3-0.6-0.3c-0.2,0-0.4,0.1-0.5,0.2c-0.1,0.2-0.2,0.4-0.2,0.8
			c0,0.4,0.1,0.6,0.2,0.8s0.3,0.3,0.5,0.3c0.2,0,0.4-0.1,0.5-0.3S107.4,15.2,107.4,14.8z"/>
		<path class="st0" d="M111.7,14l-1.6-0.2c0.1-0.3,0.1-0.5,0.3-0.7c0.1-0.2,0.3-0.3,0.5-0.4c0.2-0.1,0.4-0.2,0.6-0.2
			c0.3,0,0.6-0.1,0.9-0.1c0.5,0,0.9,0,1.2,0.1s0.6,0.2,0.8,0.4c0.1,0.1,0.3,0.3,0.3,0.5c0.1,0.2,0.1,0.4,0.1,0.7v2
			c0,0.2,0,0.4,0,0.5c0,0.1,0.1,0.3,0.2,0.5h-1.6c-0.1-0.1-0.1-0.2-0.1-0.3s0-0.2-0.1-0.3c-0.2,0.2-0.4,0.4-0.7,0.5
			c-0.3,0.1-0.6,0.2-1,0.2c-0.5,0-0.9-0.1-1.2-0.4c-0.3-0.2-0.4-0.5-0.4-0.9c0-0.3,0.1-0.6,0.3-0.8c0.2-0.2,0.6-0.4,1.1-0.5
			c0.6-0.1,1-0.2,1.2-0.3c0.2-0.1,0.4-0.1,0.6-0.2c0-0.2,0-0.4-0.1-0.4c-0.1-0.1-0.2-0.1-0.5-0.1c-0.3,0-0.5,0-0.6,0.1
			C111.8,13.7,111.7,13.8,111.7,14z M113.1,14.9c-0.2,0.1-0.5,0.2-0.7,0.2c-0.3,0.1-0.6,0.2-0.7,0.3c-0.1,0.1-0.1,0.2-0.1,0.3
			c0,0.1,0,0.2,0.1,0.3c0.1,0.1,0.2,0.1,0.4,0.1c0.2,0,0.4,0,0.5-0.1c0.2-0.1,0.3-0.2,0.3-0.3s0.1-0.3,0.1-0.5V14.9z"/>
	</g>
	<g>
		<path class="st0" d="M13.1,19.4h5v1.3H15v1h2.9v1.2H15v1.2h3.3v1.4h-5.1V19.4z"/>
		<path class="st0" d="M23.8,19.4v6.1h-1.6v-0.7c-0.2,0.3-0.4,0.5-0.6,0.6c-0.2,0.1-0.5,0.2-0.8,0.2c-0.6,0-1.1-0.2-1.4-0.7
			c-0.3-0.5-0.5-1-0.5-1.7c0-0.7,0.2-1.3,0.5-1.7c0.4-0.4,0.8-0.6,1.3-0.6c0.3,0,0.5,0,0.7,0.1s0.4,0.2,0.6,0.4v-2.1H23.8z
			 M22.1,23.3c0-0.3-0.1-0.6-0.2-0.8c-0.1-0.2-0.3-0.3-0.6-0.3c-0.2,0-0.4,0.1-0.5,0.2c-0.1,0.2-0.2,0.4-0.2,0.8
			c0,0.4,0.1,0.6,0.2,0.8s0.3,0.3,0.5,0.3c0.2,0,0.4-0.1,0.5-0.3S22.1,23.7,22.1,23.3z"/>
		<path class="st0" d="M29.5,25.5h-1.6v-0.7c-0.2,0.3-0.5,0.5-0.7,0.6c-0.2,0.1-0.5,0.2-0.9,0.2c-0.5,0-0.8-0.1-1.1-0.4
			c-0.3-0.3-0.4-0.7-0.4-1.3v-2.8h1.7v2.4c0,0.3,0.1,0.5,0.2,0.6c0.1,0.1,0.2,0.2,0.4,0.2c0.2,0,0.4-0.1,0.5-0.2s0.2-0.4,0.2-0.8
			v-2.1h1.7V25.5z"/>
		<path class="st0" d="M33.8,23.8l1.6,0.2c-0.1,0.3-0.2,0.6-0.4,0.9s-0.5,0.4-0.8,0.6s-0.7,0.2-1.2,0.2c-0.5,0-0.9,0-1.2-0.1
			c-0.3-0.1-0.6-0.2-0.8-0.4s-0.4-0.4-0.5-0.7c-0.1-0.3-0.2-0.6-0.2-1c0-0.5,0.1-0.8,0.2-1.1c0.1-0.2,0.3-0.4,0.5-0.6
			c0.2-0.2,0.4-0.3,0.6-0.4c0.3-0.1,0.8-0.2,1.3-0.2c0.7,0,1.3,0.1,1.6,0.4c0.4,0.3,0.6,0.6,0.8,1.1l-1.6,0.2c0-0.2-0.1-0.3-0.3-0.4
			c-0.1-0.1-0.3-0.1-0.5-0.1c-0.3,0-0.5,0.1-0.7,0.3C32,22.7,32,23,32,23.4c0,0.4,0.1,0.6,0.3,0.8s0.4,0.3,0.7,0.3
			c0.2,0,0.4-0.1,0.6-0.2C33.6,24.2,33.7,24,33.8,23.8z"/>
		<path class="st0" d="M37.7,22.5l-1.6-0.2c0.1-0.3,0.1-0.5,0.3-0.7c0.1-0.2,0.3-0.3,0.5-0.4c0.2-0.1,0.4-0.2,0.6-0.2
			c0.3,0,0.6-0.1,0.9-0.1c0.5,0,0.9,0,1.2,0.1s0.6,0.2,0.8,0.4c0.1,0.1,0.3,0.3,0.3,0.5c0.1,0.2,0.1,0.4,0.1,0.7v2
			c0,0.2,0,0.4,0,0.5c0,0.1,0.1,0.3,0.2,0.5h-1.6c-0.1-0.1-0.1-0.2-0.1-0.3s0-0.2-0.1-0.3c-0.2,0.2-0.4,0.4-0.7,0.5
			c-0.3,0.1-0.6,0.2-1,0.2c-0.5,0-0.9-0.1-1.2-0.4C36.1,25,36,24.7,36,24.3c0-0.3,0.1-0.6,0.3-0.8c0.2-0.2,0.6-0.4,1.1-0.5
			c0.6-0.1,1-0.2,1.2-0.3c0.2-0.1,0.4-0.1,0.6-0.2c0-0.2,0-0.4-0.1-0.4C39,22,38.8,22,38.6,22c-0.3,0-0.5,0-0.6,0.1
			C37.9,22.2,37.8,22.3,37.7,22.5z M39.2,23.4c-0.2,0.1-0.5,0.2-0.7,0.2c-0.3,0.1-0.6,0.2-0.7,0.3c-0.1,0.1-0.1,0.2-0.1,0.3
			c0,0.1,0,0.2,0.1,0.3c0.1,0.1,0.2,0.1,0.4,0.1c0.2,0,0.4,0,0.5-0.1c0.2-0.1,0.3-0.2,0.3-0.3s0.1-0.3,0.1-0.5V23.4z"/>
		<path class="st0" d="M45.1,23.8l1.6,0.2c-0.1,0.3-0.2,0.6-0.4,0.9s-0.5,0.4-0.8,0.6s-0.7,0.2-1.2,0.2c-0.5,0-0.9,0-1.2-0.1
			c-0.3-0.1-0.6-0.2-0.8-0.4s-0.4-0.4-0.5-0.7c-0.1-0.3-0.2-0.6-0.2-1c0-0.5,0.1-0.8,0.2-1.1c0.1-0.2,0.3-0.4,0.5-0.6
			c0.2-0.2,0.4-0.3,0.6-0.4c0.3-0.1,0.8-0.2,1.3-0.2c0.7,0,1.3,0.1,1.6,0.4c0.4,0.3,0.6,0.6,0.8,1.1l-1.6,0.2c0-0.2-0.1-0.3-0.3-0.4
			c-0.1-0.1-0.3-0.1-0.5-0.1c-0.3,0-0.5,0.1-0.7,0.3c-0.2,0.2-0.3,0.5-0.3,0.9c0,0.4,0.1,0.6,0.3,0.8s0.4,0.3,0.7,0.3
			c0.2,0,0.4-0.1,0.6-0.2C44.9,24.2,45.1,24,45.1,23.8z M43.2,26.2l0.1-0.5c0.3-0.1,0.5-0.1,0.7-0.1c0.5,0,0.8,0.1,1,0.2
			c0.2,0.2,0.3,0.4,0.3,0.6c0,0.1,0,0.3-0.1,0.4c-0.1,0.1-0.2,0.3-0.4,0.3c-0.2,0.1-0.5,0.1-0.8,0.1c-0.3,0-0.7,0-1.1-0.1v-0.5
			c0.3,0.1,0.6,0.1,0.9,0.1c0.2,0,0.4,0,0.5-0.1c0.1-0.1,0.1-0.1,0.1-0.2c0-0.1,0-0.2-0.1-0.2c-0.1-0.1-0.2-0.1-0.3-0.1
			C43.7,26.1,43.5,26.2,43.2,26.2z"/>
		<path class="st0" d="M49.1,22.5l-1.6-0.2c0.1-0.3,0.1-0.5,0.3-0.7c0.1-0.2,0.3-0.3,0.5-0.4c0.2-0.1,0.4-0.2,0.6-0.2
			c0.3,0,0.6-0.1,0.9-0.1c0.5,0,0.9,0,1.2,0.1s0.6,0.2,0.8,0.4c0.1,0.1,0.3,0.3,0.3,0.5c0.1,0.2,0.1,0.4,0.1,0.7v2
			c0,0.2,0,0.4,0,0.5c0,0.1,0.1,0.3,0.2,0.5h-1.6c-0.1-0.1-0.1-0.2-0.1-0.3s0-0.2-0.1-0.3c-0.2,0.2-0.4,0.4-0.7,0.5
			c-0.3,0.1-0.6,0.2-1,0.2c-0.5,0-0.9-0.1-1.2-0.4c-0.3-0.2-0.4-0.5-0.4-0.9c0-0.3,0.1-0.6,0.3-0.8c0.2-0.2,0.6-0.4,1.1-0.5
			c0.6-0.1,1-0.2,1.2-0.3c0.2-0.1,0.4-0.1,0.6-0.2c0-0.2,0-0.4-0.1-0.4C50.3,22,50.2,22,49.9,22c-0.3,0-0.5,0-0.6,0.1
			C49.2,22.2,49.1,22.3,49.1,22.5z M50.7,19.4h0.7c0,0.1,0,0.1,0,0.2c0,0.3-0.1,0.5-0.2,0.7c-0.2,0.2-0.4,0.3-0.6,0.3
			c-0.2,0-0.4-0.1-0.8-0.2c-0.2-0.1-0.4-0.1-0.5-0.1c-0.1,0-0.1,0-0.2,0.1c0,0-0.1,0.1-0.1,0.3h-0.6c0-0.1,0-0.1,0-0.2
			c0-0.3,0.1-0.5,0.2-0.7c0.2-0.2,0.4-0.3,0.6-0.3c0.1,0,0.2,0,0.3,0c0.1,0,0.2,0.1,0.5,0.2c0.2,0.1,0.4,0.1,0.5,0.1
			c0.1,0,0.1,0,0.2-0.1C50.7,19.6,50.7,19.6,50.7,19.4z M50.5,23.4c-0.2,0.1-0.5,0.2-0.7,0.2c-0.3,0.1-0.6,0.2-0.7,0.3
			C49.1,24,49,24.1,49,24.2c0,0.1,0,0.2,0.1,0.3c0.1,0.1,0.2,0.1,0.4,0.1c0.2,0,0.4,0,0.5-0.1c0.2-0.1,0.3-0.2,0.3-0.3
			s0.1-0.3,0.1-0.5V23.4z"/>
		<path class="st0" d="M53,23.3c0-0.7,0.2-1.2,0.7-1.7s1.1-0.7,1.8-0.7c0.9,0,1.6,0.3,2,0.8c0.4,0.4,0.5,0.9,0.5,1.5
			c0,0.7-0.2,1.2-0.7,1.7c-0.5,0.4-1.1,0.7-1.9,0.7c-0.7,0-1.3-0.2-1.7-0.5C53.3,24.6,53,24,53,23.3z M54.7,23.3
			c0,0.4,0.1,0.7,0.2,0.9s0.4,0.3,0.6,0.3c0.2,0,0.4-0.1,0.6-0.3c0.2-0.2,0.2-0.5,0.2-0.9c0-0.4-0.1-0.7-0.2-0.9
			c-0.2-0.2-0.4-0.3-0.6-0.3c-0.2,0-0.5,0.1-0.6,0.3C54.8,22.6,54.7,22.9,54.7,23.3z"/>
		<path class="st0" d="M61.7,21.1h1.6v0.7c0.2-0.3,0.5-0.5,0.7-0.6s0.5-0.2,0.9-0.2c0.5,0,0.8,0.1,1.1,0.4c0.3,0.3,0.4,0.7,0.4,1.3
			v2.8h-1.7v-2.4c0-0.3-0.1-0.5-0.2-0.6c-0.1-0.1-0.2-0.2-0.4-0.2c-0.2,0-0.4,0.1-0.5,0.2s-0.2,0.4-0.2,0.8v2.1h-1.7V21.1z"/>
		<path class="st0" d="M68.9,22.5l-1.6-0.2c0.1-0.3,0.1-0.5,0.3-0.7c0.1-0.2,0.3-0.3,0.5-0.4c0.2-0.1,0.4-0.2,0.6-0.2
			c0.3,0,0.6-0.1,0.9-0.1c0.5,0,0.9,0,1.2,0.1s0.6,0.2,0.8,0.4c0.1,0.1,0.3,0.3,0.3,0.5c0.1,0.2,0.1,0.4,0.1,0.7v2
			c0,0.2,0,0.4,0,0.5c0,0.1,0.1,0.3,0.2,0.5h-1.6c-0.1-0.1-0.1-0.2-0.1-0.3s0-0.2-0.1-0.3c-0.2,0.2-0.4,0.4-0.7,0.5
			c-0.3,0.1-0.6,0.2-1,0.2c-0.5,0-0.9-0.1-1.2-0.4c-0.3-0.2-0.4-0.5-0.4-0.9c0-0.3,0.1-0.6,0.3-0.8c0.2-0.2,0.6-0.4,1.1-0.5
			c0.6-0.1,1-0.2,1.2-0.3c0.2-0.1,0.4-0.1,0.6-0.2c0-0.2,0-0.4-0.1-0.4C70.2,22,70,22,69.8,22c-0.3,0-0.5,0-0.6,0.1
			C69.1,22.2,69,22.3,68.9,22.5z M70.4,23.4c-0.2,0.1-0.5,0.2-0.7,0.2c-0.3,0.1-0.6,0.2-0.7,0.3c-0.1,0.1-0.1,0.2-0.1,0.3
			c0,0.1,0,0.2,0.1,0.3c0.1,0.1,0.2,0.1,0.4,0.1c0.2,0,0.4,0,0.5-0.1c0.2-0.1,0.3-0.2,0.3-0.3s0.1-0.3,0.1-0.5V23.4z"/>
		<path class="st0" d="M75.7,23.5l1.8-0.1c0,0.3,0.1,0.5,0.2,0.7c0.2,0.2,0.5,0.4,0.8,0.4c0.3,0,0.5-0.1,0.6-0.2s0.2-0.3,0.2-0.4
			c0-0.2-0.1-0.3-0.2-0.4c-0.1-0.1-0.5-0.2-1-0.4c-0.8-0.2-1.4-0.4-1.8-0.7c-0.4-0.3-0.5-0.7-0.5-1.2c0-0.3,0.1-0.6,0.3-0.9
			c0.2-0.3,0.5-0.5,0.8-0.7c0.4-0.2,0.9-0.2,1.5-0.2c0.8,0,1.4,0.1,1.8,0.4c0.4,0.3,0.7,0.8,0.7,1.4l-1.8,0.1c0-0.3-0.1-0.5-0.3-0.6
			c-0.2-0.1-0.4-0.2-0.6-0.2c-0.2,0-0.4,0-0.5,0.1s-0.2,0.2-0.2,0.3c0,0.1,0,0.2,0.1,0.3c0.1,0.1,0.3,0.2,0.6,0.2
			c0.8,0.2,1.4,0.4,1.8,0.5c0.4,0.2,0.6,0.4,0.8,0.7c0.2,0.3,0.2,0.6,0.2,0.9c0,0.4-0.1,0.8-0.3,1.1s-0.5,0.6-0.9,0.8
			c-0.4,0.2-0.9,0.3-1.5,0.3c-1,0-1.8-0.2-2.2-0.6C76,24.6,75.8,24.1,75.7,23.5z"/>
		<path class="st0" d="M83.6,22.5L82,22.4c0.1-0.3,0.1-0.5,0.3-0.7c0.1-0.2,0.3-0.3,0.5-0.4c0.2-0.1,0.4-0.2,0.6-0.2
			c0.3,0,0.6-0.1,0.9-0.1c0.5,0,0.9,0,1.2,0.1s0.6,0.2,0.8,0.4c0.1,0.1,0.3,0.3,0.3,0.5c0.1,0.2,0.1,0.4,0.1,0.7v2
			c0,0.2,0,0.4,0,0.5c0,0.1,0.1,0.3,0.2,0.5h-1.6c-0.1-0.1-0.1-0.2-0.1-0.3s0-0.2-0.1-0.3c-0.2,0.2-0.4,0.4-0.7,0.5
			c-0.3,0.1-0.6,0.2-1,0.2c-0.5,0-0.9-0.1-1.2-0.4c-0.3-0.2-0.4-0.5-0.4-0.9c0-0.3,0.1-0.6,0.3-0.8c0.2-0.2,0.6-0.4,1.1-0.5
			c0.6-0.1,1-0.2,1.2-0.3c0.2-0.1,0.4-0.1,0.6-0.2c0-0.2,0-0.4-0.1-0.4C84.9,22,84.7,22,84.5,22c-0.3,0-0.5,0-0.6,0.1
			C83.8,22.2,83.7,22.3,83.6,22.5z M85.1,23.4c-0.2,0.1-0.5,0.2-0.7,0.2c-0.3,0.1-0.6,0.2-0.7,0.3c-0.1,0.1-0.1,0.2-0.1,0.3
			c0,0.1,0,0.2,0.1,0.3c0.1,0.1,0.2,0.1,0.4,0.1c0.2,0,0.4,0,0.5-0.1c0.2-0.1,0.3-0.2,0.3-0.3s0.1-0.3,0.1-0.5V23.4z"/>
		<path class="st0" d="M92.4,25.5h-1.6v-0.7c-0.2,0.3-0.5,0.5-0.7,0.6c-0.2,0.1-0.5,0.2-0.9,0.2c-0.5,0-0.8-0.1-1.1-0.4
			c-0.3-0.3-0.4-0.7-0.4-1.3v-2.8h1.7v2.4c0,0.3,0.1,0.5,0.2,0.6c0.1,0.1,0.2,0.2,0.4,0.2c0.2,0,0.4-0.1,0.5-0.2s0.2-0.4,0.2-0.8
			v-2.1h1.7V25.5z M90,19.3h1.5l-1.3,1.2h-0.8L90,19.3z"/>
		<path class="st0" d="M98.1,19.4v6.1h-1.6v-0.7c-0.2,0.3-0.4,0.5-0.6,0.6c-0.2,0.1-0.5,0.2-0.8,0.2c-0.6,0-1.1-0.2-1.4-0.7
			c-0.3-0.5-0.5-1-0.5-1.7c0-0.7,0.2-1.3,0.5-1.7c0.4-0.4,0.8-0.6,1.3-0.6c0.3,0,0.5,0,0.7,0.1s0.4,0.2,0.6,0.4v-2.1H98.1z
			 M96.4,23.3c0-0.3-0.1-0.6-0.2-0.8c-0.1-0.2-0.3-0.3-0.6-0.3c-0.2,0-0.4,0.1-0.5,0.2c-0.1,0.2-0.2,0.4-0.2,0.8
			c0,0.4,0.1,0.6,0.2,0.8s0.3,0.3,0.5,0.3c0.2,0,0.4-0.1,0.5-0.3S96.4,23.7,96.4,23.3z"/>
		<path class="st0" d="M104,23.7h-3.4c0,0.3,0.1,0.5,0.2,0.6c0.2,0.2,0.4,0.3,0.6,0.3c0.2,0,0.3,0,0.5-0.1c0.1-0.1,0.2-0.1,0.3-0.3
			l1.7,0.2c-0.3,0.4-0.6,0.8-0.9,1c-0.4,0.2-0.9,0.3-1.6,0.3c-0.6,0-1-0.1-1.4-0.2s-0.6-0.4-0.8-0.8c-0.2-0.4-0.3-0.8-0.3-1.3
			c0-0.7,0.2-1.2,0.7-1.7s1.1-0.6,1.8-0.6c0.6,0,1.1,0.1,1.5,0.3s0.6,0.5,0.8,0.8c0.2,0.4,0.3,0.8,0.3,1.4V23.7z M102.3,22.9
			c0-0.3-0.1-0.6-0.3-0.7c-0.1-0.1-0.3-0.2-0.6-0.2c-0.3,0-0.5,0.1-0.6,0.3c-0.1,0.1-0.2,0.3-0.2,0.6H102.3z"/>
	</g>
</g>
</svg>
