<?xml version="1.0" encoding="utf-8"?>
<!-- Generator: Adobe Illustrator 21.1.0, SVG Export Plug-In . SVG Version: 6.00 Build 0)  -->
<svg version="1.1" id="Camada_1" xmlns="http://www.w3.org/2000/svg" xmlns:xlink="http://www.w3.org/1999/xlink" x="0px" y="0px"
	 viewBox="0 0 51.9 18.7" style="enable-background:new 0 0 51.9 18.7;" xml:space="preserve">
<style type="text/css">
	.st0{fill:#1D1D1B;}
</style>
<g>
	<g>
		<path class="st0" d="M2.5,8V1.9h1.2l1.4,4.3c0.1,0.4,0.2,0.7,0.3,0.9c0.1-0.2,0.2-0.5,0.3-1l1.5-4.2h1.1V8H7.5V2.9L5.7,8H5
			L3.2,2.8V8H2.5z"/>
		<path class="st0" d="M9.5,2.8V1.9h0.7v0.9H9.5z M9.5,8V3.6h0.7V8H9.5z"/>
		<path class="st0" d="M11.4,8V3.6h0.7v0.6c0.3-0.5,0.8-0.7,1.4-0.7c0.3,0,0.5,0,0.7,0.1c0.2,0.1,0.4,0.2,0.5,0.4
			c0.1,0.2,0.2,0.3,0.2,0.6c0,0.1,0,0.4,0,0.7V8h-0.7V5.3c0-0.3,0-0.5-0.1-0.7c-0.1-0.2-0.2-0.3-0.3-0.4c-0.1-0.1-0.3-0.1-0.5-0.1
			c-0.3,0-0.6,0.1-0.8,0.3c-0.2,0.2-0.3,0.6-0.3,1.2V8H11.4z"/>
		<path class="st0" d="M16.1,2.8V1.9h0.7v0.9H16.1z M16.1,8V3.6h0.7V8H16.1z"/>
		<path class="st0" d="M17.7,6.7l0.7-0.1c0,0.3,0.2,0.5,0.3,0.7c0.2,0.2,0.5,0.2,0.8,0.2c0.3,0,0.6-0.1,0.8-0.2
			c0.2-0.1,0.2-0.3,0.2-0.5c0-0.2-0.1-0.3-0.2-0.4c-0.1-0.1-0.4-0.2-0.8-0.3c-0.5-0.1-0.9-0.3-1.1-0.4S18.1,5.5,18,5.4
			S17.8,5,17.8,4.8c0-0.2,0-0.4,0.1-0.5c0.1-0.2,0.2-0.3,0.4-0.4c0.1-0.1,0.3-0.2,0.5-0.2s0.4-0.1,0.6-0.1c0.3,0,0.7,0,0.9,0.1
			s0.5,0.2,0.6,0.4c0.1,0.2,0.2,0.4,0.3,0.7l-0.7,0.1c0-0.2-0.1-0.4-0.3-0.5c-0.2-0.1-0.4-0.2-0.7-0.2c-0.3,0-0.6,0.1-0.7,0.2
			c-0.1,0.1-0.2,0.2-0.2,0.4c0,0.1,0,0.2,0.1,0.3c0.1,0.1,0.2,0.1,0.3,0.2c0.1,0,0.3,0.1,0.7,0.2c0.5,0.1,0.9,0.3,1.1,0.3
			c0.2,0.1,0.4,0.2,0.5,0.4s0.2,0.4,0.2,0.6c0,0.2-0.1,0.5-0.2,0.7c-0.1,0.2-0.4,0.4-0.6,0.5c-0.3,0.1-0.6,0.2-0.9,0.2
			c-0.6,0-1-0.1-1.3-0.4S17.8,7.2,17.7,6.7z"/>
		<path class="st0" d="M23.9,7.3L24,8c-0.2,0-0.4,0.1-0.6,0.1c-0.3,0-0.5,0-0.6-0.1c-0.1-0.1-0.3-0.2-0.3-0.3
			c-0.1-0.1-0.1-0.4-0.1-0.9V4.2h-0.5V3.6h0.5V2.5l0.7-0.4v1.5h0.8v0.6h-0.8v2.6c0,0.2,0,0.4,0,0.4s0.1,0.1,0.1,0.1s0.1,0.1,0.3,0.1
			C23.7,7.4,23.8,7.4,23.9,7.3z"/>
		<path class="st0" d="M27.7,6.6l0.8,0.1c-0.1,0.5-0.3,0.8-0.7,1.1C27.4,8,27,8.1,26.5,8.1c-0.6,0-1.2-0.2-1.5-0.6
			c-0.4-0.4-0.6-1-0.6-1.7c0-0.7,0.2-1.3,0.6-1.7c0.4-0.4,0.9-0.6,1.5-0.6c0.6,0,1.1,0.2,1.4,0.6c0.4,0.4,0.6,1,0.6,1.7
			c0,0,0,0.1,0,0.2h-3.3c0,0.5,0.2,0.9,0.4,1.1s0.6,0.4,0.9,0.4c0.3,0,0.5-0.1,0.7-0.2C27.4,7.1,27.5,6.9,27.7,6.6z M25.2,5.4h2.5
			c0-0.4-0.1-0.6-0.3-0.8c-0.2-0.3-0.5-0.4-0.9-0.4c-0.3,0-0.6,0.1-0.9,0.3C25.4,4.7,25.2,5,25.2,5.4z M26,3.1l0.6-1.2h1l-0.9,1.2
			H26z"/>
		<path class="st0" d="M29.4,8V3.6H30v0.7c0.2-0.3,0.3-0.5,0.5-0.6s0.3-0.1,0.5-0.1c0.3,0,0.5,0.1,0.8,0.2l-0.3,0.7
			c-0.2-0.1-0.4-0.2-0.5-0.2c-0.2,0-0.3,0-0.4,0.1c-0.1,0.1-0.2,0.2-0.3,0.4c-0.1,0.3-0.1,0.6-0.1,0.9V8H29.4z"/>
		<path class="st0" d="M32.2,2.8V1.9H33v0.9H32.2z M32.2,8V3.6H33V8H32.2z"/>
		<path class="st0" d="M33.8,5.8C33.8,5,34,4.4,34.5,4c0.4-0.3,0.8-0.5,1.4-0.5c0.6,0,1.1,0.2,1.5,0.6C37.8,4.5,38,5,38,5.7
			c0,0.6-0.1,1-0.3,1.3c-0.2,0.3-0.4,0.6-0.7,0.8c-0.3,0.2-0.7,0.3-1.1,0.3c-0.6,0-1.1-0.2-1.5-0.6C34,7.1,33.8,6.6,33.8,5.8z
			 M34.6,5.8c0,0.6,0.1,1,0.4,1.3s0.6,0.4,0.9,0.4c0.4,0,0.7-0.1,0.9-0.4c0.2-0.3,0.4-0.7,0.4-1.3c0-0.5-0.1-1-0.4-1.2
			s-0.6-0.4-0.9-0.4c-0.4,0-0.7,0.1-0.9,0.4S34.6,5.2,34.6,5.8z"/>
		<path class="st0" d="M44.1,8V7.5c-0.3,0.4-0.7,0.7-1.2,0.7c-0.4,0-0.7-0.1-1-0.3c-0.3-0.2-0.5-0.5-0.7-0.8s-0.2-0.7-0.2-1.2
			c0-0.4,0.1-0.8,0.2-1.2c0.1-0.4,0.4-0.6,0.7-0.8s0.6-0.3,1-0.3c0.3,0,0.5,0.1,0.7,0.2s0.4,0.3,0.5,0.4V1.9h0.7V8H44.1z M41.7,5.8
			c0,0.6,0.1,1,0.4,1.3s0.5,0.4,0.8,0.4c0.3,0,0.6-0.1,0.8-0.4s0.3-0.7,0.3-1.2c0-0.6-0.1-1-0.3-1.3c-0.2-0.3-0.5-0.4-0.9-0.4
			c-0.3,0-0.6,0.1-0.8,0.4S41.7,5.2,41.7,5.8z"/>
		<path class="st0" d="M48.8,7.5C48.5,7.7,48.3,7.9,48,8c-0.3,0.1-0.5,0.1-0.8,0.1c-0.5,0-0.9-0.1-1.1-0.4c-0.3-0.2-0.4-0.5-0.4-0.9
			c0-0.2,0-0.4,0.1-0.6c0.1-0.2,0.2-0.3,0.4-0.4c0.2-0.1,0.3-0.2,0.5-0.2c0.1,0,0.4-0.1,0.7-0.1c0.6-0.1,1-0.2,1.3-0.3
			c0-0.1,0-0.2,0-0.2c0-0.3-0.1-0.5-0.2-0.6c-0.2-0.2-0.5-0.3-0.9-0.3c-0.4,0-0.6,0.1-0.8,0.2c-0.2,0.1-0.3,0.3-0.4,0.7l-0.7-0.1
			c0.1-0.3,0.2-0.6,0.3-0.8c0.2-0.2,0.4-0.3,0.7-0.4c0.3-0.1,0.6-0.2,1-0.2c0.4,0,0.7,0,0.9,0.1C49,3.7,49.1,3.8,49.2,4
			c0.1,0.1,0.2,0.3,0.2,0.5c0,0.1,0,0.4,0,0.7v1c0,0.7,0,1.1,0,1.3c0,0.2,0.1,0.4,0.2,0.5H49C48.9,7.9,48.8,7.7,48.8,7.5z M48.8,5.8
			c-0.3,0.1-0.7,0.2-1.2,0.3c-0.3,0-0.5,0.1-0.7,0.2c-0.1,0.1-0.2,0.1-0.3,0.2c-0.1,0.1-0.1,0.2-0.1,0.4c0,0.2,0.1,0.4,0.2,0.5
			c0.2,0.1,0.4,0.2,0.7,0.2c0.3,0,0.5-0.1,0.8-0.2s0.4-0.3,0.5-0.5c0.1-0.2,0.1-0.4,0.1-0.7V5.8z"/>
	</g>
	<g>
		<path class="st0" d="M11.8,14.5l1.8-0.1c0,0.3,0.1,0.5,0.2,0.7c0.2,0.2,0.5,0.4,0.8,0.4c0.3,0,0.5-0.1,0.6-0.2s0.2-0.3,0.2-0.4
			c0-0.2-0.1-0.3-0.2-0.4c-0.1-0.1-0.5-0.2-1-0.4c-0.8-0.2-1.4-0.4-1.8-0.7c-0.4-0.3-0.5-0.7-0.5-1.2c0-0.3,0.1-0.6,0.3-0.9
			c0.2-0.3,0.5-0.5,0.8-0.7c0.4-0.2,0.9-0.2,1.5-0.2c0.8,0,1.4,0.1,1.8,0.4c0.4,0.3,0.7,0.8,0.7,1.4l-1.8,0.1c0-0.3-0.1-0.5-0.3-0.6
			c-0.2-0.1-0.4-0.2-0.6-0.2c-0.2,0-0.4,0-0.5,0.1s-0.2,0.2-0.2,0.3c0,0.1,0,0.2,0.1,0.3c0.1,0.1,0.3,0.2,0.6,0.2
			c0.8,0.2,1.4,0.4,1.8,0.5c0.4,0.2,0.6,0.4,0.8,0.7c0.2,0.3,0.2,0.6,0.2,0.9c0,0.4-0.1,0.8-0.3,1.1s-0.5,0.6-0.9,0.8
			c-0.4,0.2-0.9,0.3-1.5,0.3c-1,0-1.8-0.2-2.2-0.6C12.1,15.6,11.9,15.1,11.8,14.5z"/>
		<path class="st0" d="M19.7,13.5l-1.6-0.2c0.1-0.3,0.1-0.5,0.3-0.7c0.1-0.2,0.3-0.3,0.5-0.4c0.2-0.1,0.4-0.2,0.6-0.2
			c0.3,0,0.6-0.1,0.9-0.1c0.5,0,0.9,0,1.2,0.1s0.6,0.2,0.8,0.4c0.1,0.1,0.3,0.3,0.3,0.5c0.1,0.2,0.1,0.4,0.1,0.7v2
			c0,0.2,0,0.4,0,0.5c0,0.1,0.1,0.3,0.2,0.5h-1.6c-0.1-0.1-0.1-0.2-0.1-0.3s0-0.2-0.1-0.3c-0.2,0.2-0.4,0.4-0.7,0.5
			c-0.3,0.1-0.6,0.2-1,0.2c-0.5,0-0.9-0.1-1.2-0.4C18.1,16,18,15.7,18,15.4c0-0.3,0.1-0.6,0.3-0.8c0.2-0.2,0.6-0.4,1.1-0.5
			c0.6-0.1,1-0.2,1.2-0.3c0.2-0.1,0.4-0.1,0.6-0.2c0-0.2,0-0.4-0.1-0.4C21,13.1,20.8,13,20.6,13c-0.3,0-0.5,0-0.6,0.1
			C19.9,13.2,19.8,13.4,19.7,13.5z M21.2,14.4c-0.2,0.1-0.5,0.2-0.7,0.2c-0.3,0.1-0.6,0.2-0.7,0.3c-0.1,0.1-0.1,0.2-0.1,0.3
			c0,0.1,0,0.2,0.1,0.3c0.1,0.1,0.2,0.1,0.4,0.1c0.2,0,0.4,0,0.5-0.1c0.2-0.1,0.3-0.2,0.3-0.3s0.1-0.3,0.1-0.5V14.4z"/>
		<path class="st0" d="M28.5,16.5H27v-0.7c-0.2,0.3-0.5,0.5-0.7,0.6c-0.2,0.1-0.5,0.2-0.9,0.2c-0.5,0-0.8-0.1-1.1-0.4
			c-0.3-0.3-0.4-0.7-0.4-1.3v-2.8h1.7v2.4c0,0.3,0.1,0.5,0.2,0.6c0.1,0.1,0.2,0.2,0.4,0.2c0.2,0,0.4-0.1,0.5-0.2s0.2-0.4,0.2-0.8
			v-2.1h1.7V16.5z M26.2,10.3h1.5l-1.3,1.2h-0.8L26.2,10.3z"/>
		<path class="st0" d="M34.2,10.4v6.1h-1.6v-0.7c-0.2,0.3-0.4,0.5-0.6,0.6c-0.2,0.1-0.5,0.2-0.8,0.2c-0.6,0-1.1-0.2-1.4-0.7
			c-0.3-0.5-0.5-1-0.5-1.7c0-0.7,0.2-1.3,0.5-1.7c0.4-0.4,0.8-0.6,1.3-0.6c0.3,0,0.5,0,0.7,0.1c0.2,0.1,0.4,0.2,0.6,0.4v-2.1H34.2z
			 M32.5,14.3c0-0.3-0.1-0.6-0.2-0.8c-0.1-0.2-0.3-0.3-0.6-0.3c-0.2,0-0.4,0.1-0.5,0.2C31.1,13.7,31,14,31,14.3
			c0,0.4,0.1,0.6,0.2,0.8s0.3,0.3,0.5,0.3c0.2,0,0.4-0.1,0.5-0.3S32.5,14.7,32.5,14.3z"/>
		<path class="st0" d="M40.1,14.7h-3.4c0,0.3,0.1,0.5,0.2,0.6c0.2,0.2,0.4,0.3,0.6,0.3c0.2,0,0.3,0,0.5-0.1c0.1-0.1,0.2-0.1,0.3-0.3
			l1.7,0.2c-0.3,0.4-0.6,0.8-0.9,1c-0.4,0.2-0.9,0.3-1.6,0.3c-0.6,0-1-0.1-1.4-0.2s-0.6-0.4-0.8-0.8c-0.2-0.4-0.3-0.8-0.3-1.3
			c0-0.7,0.2-1.2,0.7-1.7s1.1-0.6,1.8-0.6c0.6,0,1.1,0.1,1.5,0.3s0.6,0.5,0.8,0.8s0.3,0.8,0.3,1.4V14.7z M38.4,13.9
			c0-0.3-0.1-0.6-0.3-0.7C38,13.1,37.8,13,37.6,13c-0.3,0-0.5,0.1-0.6,0.3c-0.1,0.1-0.2,0.3-0.2,0.6H38.4z"/>
	</g>
</g>
</svg>
