<?xml version="1.0" encoding="utf-8"?>
<!-- Generator: Adobe Illustrator 21.1.0, SVG Export Plug-In . SVG Version: 6.00 Build 0)  -->
<svg version="1.1" id="Camada_1" xmlns="http://www.w3.org/2000/svg" xmlns:xlink="http://www.w3.org/1999/xlink" x="0px" y="0px"
	 viewBox="0 0 149 40" style="enable-background:new 0 0 149 40;" xml:space="preserve">
<style type="text/css">
	.st0{fill:#575756;}
	.st1{fill:#00A3E5;}
	.st2{fill:#17509E;}
</style>
<g>
	<path class="st0" d="M139.5,30.8c0,0.3,0,0.5,0.1,0.7c0.1,0.2,0.2,0.4,0.4,0.5c0.2,0.1,0.4,0.2,0.6,0.3s0.5,0.1,0.8,0.1
		c0.6,0,1.1-0.1,1.4-0.4c0.3-0.3,0.5-0.6,0.5-1.1c0-0.3,0-0.5-0.1-0.6c-0.1-0.2-0.2-0.3-0.3-0.4c-0.1-0.1-0.3-0.2-0.5-0.3
		c-0.2-0.1-0.4-0.1-0.6-0.2s-0.4-0.1-0.6-0.1c-0.2,0-0.4-0.1-0.5-0.2c-0.2-0.1-0.3-0.1-0.4-0.3c-0.1-0.1-0.2-0.2-0.2-0.4
		c0-0.1,0-0.3,0-0.4s0.1-0.3,0.2-0.4c0.1-0.1,0.2-0.2,0.4-0.3c0.2-0.1,0.4-0.1,0.6-0.1c0.2,0,0.3,0,0.5,0.1s0.3,0.1,0.4,0.2
		c0.1,0.1,0.2,0.2,0.3,0.4c0.1,0.1,0.1,0.3,0.1,0.5h0.5c0-0.2,0-0.4-0.1-0.6c-0.1-0.2-0.2-0.4-0.3-0.5c-0.1-0.1-0.3-0.3-0.5-0.3
		c-0.2-0.1-0.5-0.1-0.8-0.1c-0.3,0-0.5,0-0.8,0.1c-0.2,0.1-0.4,0.2-0.6,0.3c-0.1,0.1-0.3,0.3-0.3,0.5s-0.1,0.3-0.1,0.5
		c0,0.3,0,0.5,0.1,0.6c0.1,0.2,0.2,0.3,0.4,0.4c0.1,0.1,0.3,0.2,0.5,0.3s0.4,0.1,0.6,0.2c0.2,0,0.4,0.1,0.6,0.1
		c0.2,0,0.4,0.1,0.5,0.2c0.1,0.1,0.3,0.2,0.4,0.3c0.1,0.1,0.1,0.3,0.1,0.5c0,0.1,0,0.3-0.1,0.4c-0.1,0.1-0.1,0.2-0.2,0.3
		c-0.1,0.1-0.2,0.2-0.4,0.2c-0.2,0.1-0.4,0.1-0.6,0.1c-0.2,0-0.4,0-0.6-0.1c-0.2,0-0.3-0.1-0.5-0.2c-0.1-0.1-0.2-0.2-0.3-0.4
		c-0.1-0.2-0.1-0.4-0.2-0.6H139.5z M134.5,30.4c0,0.7,0.2,1.2,0.5,1.6c0.3,0.4,0.8,0.6,1.5,0.6c0.7,0,1.2-0.2,1.5-0.5
		c0.3-0.4,0.5-0.9,0.5-1.6v-3.3h-0.5v3.1c0,0.3,0,0.6-0.1,0.8c-0.1,0.2-0.1,0.4-0.3,0.6c-0.1,0.2-0.3,0.3-0.5,0.3
		c-0.2,0.1-0.4,0.1-0.7,0.1c-0.5,0-0.9-0.1-1.2-0.4c-0.2-0.3-0.4-0.8-0.4-1.4v-3.1h-0.5V30.4z M129.8,30.8c0,0.3,0,0.5,0.1,0.7
		c0.1,0.2,0.2,0.4,0.4,0.5c0.2,0.1,0.4,0.2,0.6,0.3c0.2,0.1,0.5,0.1,0.8,0.1c0.6,0,1.1-0.1,1.4-0.4c0.3-0.3,0.5-0.6,0.5-1.1
		c0-0.3,0-0.5-0.1-0.6c-0.1-0.2-0.2-0.3-0.3-0.4c-0.1-0.1-0.3-0.2-0.5-0.3c-0.2-0.1-0.4-0.1-0.6-0.2s-0.4-0.1-0.6-0.1
		c-0.2,0-0.4-0.1-0.5-0.2c-0.2-0.1-0.3-0.1-0.4-0.3c-0.1-0.1-0.2-0.2-0.2-0.4c0-0.1,0-0.3,0-0.4c0-0.1,0.1-0.3,0.2-0.4
		c0.1-0.1,0.2-0.2,0.4-0.3c0.2-0.1,0.4-0.1,0.6-0.1c0.2,0,0.3,0,0.5,0.1c0.2,0,0.3,0.1,0.4,0.2c0.1,0.1,0.2,0.2,0.3,0.4
		c0.1,0.1,0.1,0.3,0.1,0.5h0.5c0-0.2,0-0.4-0.1-0.6c-0.1-0.2-0.2-0.4-0.3-0.5c-0.1-0.1-0.3-0.3-0.5-0.3c-0.2-0.1-0.5-0.1-0.8-0.1
		c-0.3,0-0.5,0-0.8,0.1c-0.2,0.1-0.4,0.2-0.6,0.3c-0.1,0.1-0.3,0.3-0.3,0.5c-0.1,0.2-0.1,0.3-0.1,0.5c0,0.3,0,0.5,0.1,0.6
		c0.1,0.2,0.2,0.3,0.4,0.4c0.1,0.1,0.3,0.2,0.5,0.3c0.2,0.1,0.4,0.1,0.6,0.2c0.2,0,0.4,0.1,0.6,0.1c0.2,0,0.4,0.1,0.5,0.2
		s0.3,0.2,0.4,0.3s0.1,0.3,0.1,0.5c0,0.1,0,0.3-0.1,0.4s-0.1,0.2-0.2,0.3c-0.1,0.1-0.2,0.2-0.4,0.2c-0.2,0.1-0.4,0.1-0.6,0.1
		c-0.2,0-0.4,0-0.6-0.1c-0.2,0-0.3-0.1-0.5-0.2c-0.1-0.1-0.2-0.2-0.3-0.4c-0.1-0.2-0.1-0.4-0.2-0.6H129.8z M126.7,31
		c0,0.2-0.1,0.4-0.2,0.5c-0.1,0.2-0.2,0.3-0.4,0.4c-0.2,0.1-0.4,0.1-0.6,0.1c-0.2,0-0.4,0-0.6-0.1c-0.2-0.1-0.3-0.2-0.4-0.3
		c-0.1-0.1-0.2-0.3-0.2-0.5c-0.1-0.2-0.1-0.4-0.1-0.6c0-0.2,0-0.4,0.1-0.6c0-0.2,0.1-0.4,0.2-0.5c0.1-0.1,0.2-0.3,0.4-0.4
		c0.2-0.1,0.4-0.1,0.6-0.1c0.2,0,0.4,0,0.6,0.1c0.2,0.1,0.3,0.2,0.4,0.3c0.1,0.1,0.2,0.3,0.2,0.5c0,0.2,0.1,0.4,0.1,0.6
		C126.7,30.7,126.7,30.9,126.7,31 M126.2,32.3c0.2-0.1,0.4-0.2,0.6-0.4c0.2-0.2,0.3-0.4,0.4-0.6c0.1-0.2,0.1-0.5,0.1-0.8
		c0-0.3,0-0.5-0.1-0.8c-0.1-0.2-0.2-0.5-0.3-0.6c-0.1-0.2-0.3-0.3-0.5-0.4c-0.2-0.1-0.5-0.2-0.8-0.2c-0.3,0-0.5,0.1-0.8,0.2
		c-0.2,0.1-0.4,0.2-0.5,0.4c-0.1,0.2-0.3,0.4-0.3,0.6c-0.1,0.2-0.1,0.5-0.1,0.8c0,0.3,0,0.6,0.1,0.9c0.1,0.2,0.2,0.5,0.4,0.6
		c0.2,0.2,0.3,0.3,0.6,0.4c0.2,0.1,0.4,0.1,0.7,0.1C125.7,32.4,125.9,32.4,126.2,32.3 M122.4,29.2c-0.1-0.2-0.3-0.4-0.6-0.5
		c-0.2-0.1-0.5-0.2-0.8-0.2c-0.3,0-0.5,0.1-0.7,0.2c-0.2,0.1-0.4,0.3-0.5,0.4c-0.1,0.2-0.2,0.4-0.3,0.6c-0.1,0.2-0.1,0.5-0.1,0.8
		c0,0.3,0,0.5,0.1,0.8c0.1,0.2,0.2,0.5,0.3,0.6c0.1,0.2,0.3,0.3,0.5,0.4c0.2,0.1,0.5,0.2,0.8,0.2c0.1,0,0.2,0,0.4-0.1
		c0.1,0,0.2-0.1,0.4-0.1c0.1-0.1,0.2-0.1,0.3-0.2c0.1-0.1,0.2-0.2,0.2-0.3h0v0.7h0.4v-5.2h-0.4V29.2z M122.3,31.1
		c-0.1,0.2-0.1,0.4-0.2,0.5c-0.1,0.1-0.2,0.3-0.4,0.3c-0.2,0.1-0.3,0.1-0.5,0.1c-0.2,0-0.4,0-0.5-0.1c-0.2-0.1-0.3-0.2-0.4-0.3
		c-0.1-0.1-0.2-0.3-0.3-0.5c-0.1-0.2-0.1-0.4-0.1-0.6c0-0.2,0-0.5,0.1-0.7c0-0.2,0.1-0.4,0.2-0.5c0.1-0.2,0.2-0.3,0.4-0.4
		c0.2-0.1,0.4-0.1,0.6-0.1c0.2,0,0.4,0,0.5,0.1c0.2,0.1,0.3,0.2,0.4,0.3c0.1,0.1,0.2,0.3,0.3,0.5c0.1,0.2,0.1,0.4,0.1,0.6
		C122.4,30.7,122.4,30.9,122.3,31.1 M114.6,30.2c-0.9,0.1-1.3,0.5-1.3,1.1c0,0.2,0,0.3,0.1,0.5c0.1,0.1,0.2,0.2,0.3,0.3
		c0.1,0.1,0.3,0.2,0.4,0.2c0.2,0,0.3,0.1,0.5,0.1c0.3,0,0.5-0.1,0.8-0.2c0.2-0.1,0.4-0.3,0.6-0.5c0,0.1,0,0.1,0,0.2
		c0,0.1,0,0.1,0.1,0.2c0,0.1,0.1,0.1,0.1,0.1c0,0,0.1,0.1,0.2,0.1c0.1,0,0.1,0,0.2,0c0.1,0,0.1,0,0.2,0c0.1,0,0.1,0,0.1,0V32
		c-0.2,0.1-0.3,0.1-0.4,0c-0.1,0-0.1-0.2-0.1-0.3v-2.1c0-0.2,0-0.4-0.1-0.6c-0.1-0.2-0.2-0.3-0.3-0.4c-0.1-0.1-0.3-0.2-0.4-0.2
		c-0.2,0-0.3-0.1-0.5-0.1c-0.2,0-0.4,0-0.6,0.1c-0.2,0-0.3,0.1-0.5,0.2c-0.1,0.1-0.3,0.2-0.3,0.4c-0.1,0.2-0.1,0.3-0.2,0.6h0.4
		c0-0.2,0.1-0.3,0.1-0.4c0.1-0.1,0.1-0.2,0.2-0.3c0.1-0.1,0.2-0.1,0.3-0.1c0.1,0,0.3,0,0.4,0c0.3,0,0.6,0.1,0.7,0.2
		c0.1,0.1,0.2,0.3,0.2,0.6c0,0.1,0,0.1,0,0.2s-0.1,0.1-0.1,0.2c-0.1,0-0.2,0.1-0.3,0.1c-0.1,0-0.2,0-0.3,0L114.6,30.2z M115.9,31
		c0,0.2,0,0.4-0.1,0.5c-0.1,0.1-0.2,0.3-0.3,0.3c-0.1,0.1-0.3,0.2-0.4,0.2c-0.2,0-0.3,0.1-0.5,0.1c-0.1,0-0.2,0-0.3,0
		c-0.1,0-0.2-0.1-0.3-0.1c-0.1-0.1-0.1-0.1-0.2-0.2c0-0.1-0.1-0.2-0.1-0.3c0-0.3,0.1-0.4,0.3-0.6c0.2-0.1,0.4-0.2,0.8-0.2
		c0.2,0,0.4,0,0.6-0.1c0.2,0,0.4-0.1,0.6-0.2V31z M112.7,32c-0.1,0-0.1,0-0.2,0c-0.1,0-0.1,0-0.2,0c-0.1,0-0.2,0-0.2,0
		c-0.1,0-0.1-0.1-0.1-0.1c0,0,0-0.1,0-0.2c0-0.1,0-0.1,0-0.2v-2.6h0.7v-0.4H112v-1h-0.4v1H111v0.4h0.5v2.8c0,0.3,0.1,0.5,0.2,0.6
		c0.1,0.1,0.3,0.2,0.5,0.2c0.1,0,0.2,0,0.3,0c0.1,0,0.2,0,0.2-0.1V32z M109.4,30.5c0-0.2,0-0.4,0.1-0.6c0-0.2,0.1-0.4,0.2-0.5
		c0.1-0.1,0.2-0.3,0.4-0.3c0.2-0.1,0.4-0.1,0.6-0.1v-0.5c-0.3,0-0.6,0.1-0.8,0.2c-0.2,0.1-0.3,0.3-0.5,0.6h0v-0.7H109v3.8h0.4V30.5z
		 M108.1,30.6c0-0.7-0.1-1.2-0.4-1.6c-0.3-0.4-0.7-0.5-1.2-0.5c-0.3,0-0.5,0.1-0.7,0.2c-0.2,0.1-0.4,0.2-0.5,0.4
		c-0.1,0.2-0.3,0.4-0.3,0.6c-0.1,0.2-0.1,0.5-0.1,0.8c0,0.3,0,0.5,0.1,0.8s0.2,0.4,0.3,0.6c0.1,0.2,0.3,0.3,0.5,0.4
		c0.2,0.1,0.5,0.2,0.8,0.2c0.2,0,0.4,0,0.6-0.1c0.2-0.1,0.3-0.2,0.5-0.3c0.1-0.1,0.2-0.2,0.3-0.4c0.1-0.2,0.2-0.3,0.2-0.5h-0.5
		c-0.1,0.3-0.2,0.5-0.4,0.6c-0.2,0.2-0.4,0.2-0.7,0.2c-0.2,0-0.4,0-0.6-0.1c-0.2-0.1-0.3-0.2-0.4-0.3c-0.1-0.1-0.2-0.3-0.2-0.5
		c-0.1-0.2-0.1-0.4-0.1-0.6H108.1z M105.2,30.2c0-0.2,0.1-0.3,0.1-0.5c0.1-0.2,0.1-0.3,0.3-0.4c0.1-0.1,0.2-0.2,0.4-0.3
		c0.1-0.1,0.3-0.1,0.5-0.1s0.4,0,0.5,0.1c0.2,0.1,0.3,0.2,0.4,0.3c0.1,0.1,0.2,0.3,0.2,0.4c0.1,0.2,0.1,0.3,0.1,0.5H105.2z
		 M101,31.7L101,31.7c0.1,0.1,0.2,0.2,0.3,0.3c0.1,0.1,0.2,0.2,0.3,0.2c0.1,0.1,0.2,0.1,0.4,0.1c0.1,0,0.2,0.1,0.4,0.1
		c0.3,0,0.6-0.1,0.8-0.2c0.2-0.1,0.4-0.2,0.5-0.4s0.2-0.4,0.3-0.6c0.1-0.2,0.1-0.5,0.1-0.8c0-0.3,0-0.5-0.1-0.8
		c-0.1-0.2-0.2-0.5-0.3-0.6c-0.1-0.2-0.3-0.3-0.5-0.4c-0.2-0.1-0.5-0.2-0.7-0.2c-0.3,0-0.5,0.1-0.8,0.2c-0.2,0.1-0.4,0.3-0.6,0.5
		v-2.1h-0.4v5.2h0.4V31.7z M101.1,29.8c0.1-0.2,0.1-0.4,0.3-0.5c0.1-0.1,0.2-0.3,0.4-0.3c0.2-0.1,0.3-0.1,0.5-0.1
		c0.2,0,0.4,0,0.6,0.1c0.2,0.1,0.3,0.2,0.4,0.4c0.1,0.2,0.2,0.3,0.2,0.5c0,0.2,0.1,0.4,0.1,0.7c0,0.2,0,0.4-0.1,0.6
		c-0.1,0.2-0.2,0.3-0.3,0.5c-0.1,0.1-0.3,0.2-0.4,0.3c-0.2,0.1-0.3,0.1-0.5,0.1c-0.2,0-0.4,0-0.5-0.1c-0.2-0.1-0.3-0.2-0.4-0.3
		c-0.1-0.1-0.2-0.3-0.2-0.5c-0.1-0.2-0.1-0.4-0.1-0.6C101,30.2,101,30,101.1,29.8 M97.5,27.5l1,2.8h-2.1L97.5,27.5z M95.7,32.3
		l0.6-1.6h2.4l0.6,1.6h0.5l-2-5.2h-0.6l-2.1,5.2H95.7z M92.8,30.6c0-0.7-0.1-1.2-0.4-1.6c-0.3-0.4-0.7-0.5-1.2-0.5
		c-0.3,0-0.5,0.1-0.7,0.2c-0.2,0.1-0.4,0.2-0.5,0.4c-0.1,0.2-0.3,0.4-0.3,0.6c-0.1,0.2-0.1,0.5-0.1,0.8c0,0.3,0,0.5,0.1,0.8
		s0.2,0.4,0.3,0.6s0.3,0.3,0.5,0.4c0.2,0.1,0.5,0.2,0.8,0.2c0.2,0,0.4,0,0.6-0.1c0.2-0.1,0.3-0.2,0.5-0.3c0.1-0.1,0.2-0.2,0.3-0.4
		c0.1-0.2,0.2-0.3,0.2-0.5h-0.5c-0.1,0.3-0.2,0.5-0.4,0.6C91.6,32,91.4,32,91.1,32c-0.2,0-0.4,0-0.6-0.1c-0.2-0.1-0.3-0.2-0.4-0.3
		c-0.1-0.1-0.2-0.3-0.2-0.5c-0.1-0.2-0.1-0.4-0.1-0.6H92.8z M89.8,30.2c0-0.2,0.1-0.3,0.1-0.5c0.1-0.2,0.1-0.3,0.3-0.4
		c0.1-0.1,0.2-0.2,0.4-0.3c0.1-0.1,0.3-0.1,0.5-0.1s0.4,0,0.5,0.1c0.2,0.1,0.3,0.2,0.4,0.3c0.1,0.1,0.2,0.3,0.2,0.4
		c0.1,0.2,0.1,0.3,0.1,0.5H89.8z M88,29.2c-0.1-0.2-0.3-0.4-0.6-0.5c-0.2-0.1-0.5-0.2-0.8-0.2c-0.3,0-0.5,0.1-0.7,0.2
		c-0.2,0.1-0.4,0.3-0.5,0.4c-0.1,0.2-0.2,0.4-0.3,0.6C85,29.9,85,30.2,85,30.5c0,0.3,0,0.5,0.1,0.8c0.1,0.2,0.2,0.5,0.3,0.6
		c0.1,0.2,0.3,0.3,0.5,0.4c0.2,0.1,0.5,0.2,0.8,0.2c0.1,0,0.2,0,0.4-0.1c0.1,0,0.2-0.1,0.4-0.1c0.1-0.1,0.2-0.1,0.3-0.2
		c0.1-0.1,0.2-0.2,0.2-0.3h0v0.7h0.4v-5.2H88V29.2z M87.9,31.1c-0.1,0.2-0.1,0.4-0.2,0.5c-0.1,0.1-0.2,0.3-0.4,0.3
		C87.1,32,87,32,86.8,32c-0.2,0-0.4,0-0.5-0.1c-0.2-0.1-0.3-0.2-0.4-0.3c-0.1-0.1-0.2-0.3-0.3-0.5c-0.1-0.2-0.1-0.4-0.1-0.6
		c0-0.2,0-0.5,0.1-0.7c0-0.2,0.1-0.4,0.2-0.5c0.1-0.2,0.2-0.3,0.4-0.4c0.2-0.1,0.4-0.1,0.6-0.1c0.2,0,0.4,0,0.5,0.1
		c0.2,0.1,0.3,0.2,0.4,0.3s0.2,0.3,0.3,0.5C88,30,88,30.2,88,30.4C88,30.7,88,30.9,87.9,31.1 M82.2,30.2c-0.9,0.1-1.3,0.5-1.3,1.1
		c0,0.2,0,0.3,0.1,0.5c0.1,0.1,0.2,0.2,0.3,0.3c0.1,0.1,0.3,0.2,0.4,0.2c0.2,0,0.3,0.1,0.5,0.1c0.3,0,0.5-0.1,0.8-0.2
		c0.2-0.1,0.4-0.3,0.6-0.5c0,0.1,0,0.1,0,0.2c0,0.1,0,0.1,0.1,0.2c0,0.1,0.1,0.1,0.1,0.1c0,0,0.1,0.1,0.2,0.1c0.1,0,0.1,0,0.2,0
		c0.1,0,0.1,0,0.2,0c0.1,0,0.1,0,0.1,0V32c-0.2,0.1-0.3,0.1-0.4,0C84,32,84,31.9,84,31.7v-2.1c0-0.2,0-0.4-0.1-0.6
		c-0.1-0.2-0.2-0.3-0.3-0.4s-0.3-0.2-0.4-0.2c-0.2,0-0.3-0.1-0.5-0.1c-0.2,0-0.4,0-0.6,0.1c-0.2,0-0.3,0.1-0.5,0.2
		c-0.1,0.1-0.3,0.2-0.3,0.4c-0.1,0.2-0.1,0.3-0.2,0.6h0.4c0-0.2,0.1-0.3,0.1-0.4c0.1-0.1,0.1-0.2,0.2-0.3c0.1-0.1,0.2-0.1,0.3-0.1
		c0.1,0,0.3,0,0.4,0c0.3,0,0.6,0.1,0.7,0.2c0.1,0.1,0.2,0.3,0.2,0.6c0,0.1,0,0.1,0,0.2S83.5,30,83.4,30s-0.2,0.1-0.3,0.1
		c-0.1,0-0.2,0-0.3,0L82.2,30.2z M83.5,31c0,0.2,0,0.4-0.1,0.5c-0.1,0.1-0.2,0.3-0.3,0.3c-0.1,0.1-0.3,0.2-0.4,0.2
		c-0.2,0-0.3,0.1-0.5,0.1c-0.1,0-0.2,0-0.3,0c-0.1,0-0.2-0.1-0.3-0.1c-0.1-0.1-0.1-0.1-0.2-0.2c0-0.1-0.1-0.2-0.1-0.3
		c0-0.3,0.1-0.4,0.3-0.6c0.2-0.1,0.4-0.2,0.8-0.2c0.2,0,0.4,0,0.6-0.1c0.2,0,0.4-0.1,0.6-0.2V31z M79.5,29.2
		c-0.1-0.2-0.3-0.4-0.6-0.5c-0.2-0.1-0.5-0.2-0.8-0.2c-0.3,0-0.5,0.1-0.7,0.2c-0.2,0.1-0.4,0.3-0.5,0.4c-0.1,0.2-0.2,0.4-0.3,0.6
		c-0.1,0.2-0.1,0.5-0.1,0.8c0,0.3,0,0.5,0.1,0.8c0.1,0.2,0.2,0.5,0.3,0.6s0.3,0.3,0.5,0.4c0.2,0.1,0.5,0.2,0.8,0.2
		c0.1,0,0.2,0,0.4-0.1c0.1,0,0.2-0.1,0.4-0.1c0.1-0.1,0.2-0.1,0.3-0.2c0.1-0.1,0.2-0.2,0.2-0.3h0v0.7H80v-5.2h-0.4V29.2z M79.5,31.1
		c-0.1,0.2-0.1,0.4-0.2,0.5c-0.1,0.1-0.2,0.3-0.4,0.3C78.7,32,78.5,32,78.3,32c-0.2,0-0.4,0-0.5-0.1c-0.2-0.1-0.3-0.2-0.4-0.3
		c-0.1-0.1-0.2-0.3-0.3-0.5C77,31,77,30.8,77,30.6c0-0.2,0-0.5,0.1-0.7c0-0.2,0.1-0.4,0.2-0.5c0.1-0.2,0.2-0.3,0.4-0.4
		c0.2-0.1,0.4-0.1,0.6-0.1c0.2,0,0.4,0,0.5,0.1c0.2,0.1,0.3,0.2,0.4,0.3c0.1,0.1,0.2,0.3,0.3,0.5c0.1,0.2,0.1,0.4,0.1,0.6
		C79.5,30.7,79.5,30.9,79.5,31.1 M75.5,27.1h-0.5v0.6h0.5V27.1z M75.5,28.6h-0.4v3.8h0.4V28.6z M71.2,31.2c0,0.2,0,0.3,0.1,0.5
		c0.1,0.2,0.2,0.3,0.3,0.4c0.1,0.1,0.3,0.2,0.4,0.3c0.2,0.1,0.4,0.1,0.6,0.1s0.4,0,0.6-0.1c0.2,0,0.3-0.1,0.5-0.2
		c0.1-0.1,0.2-0.2,0.3-0.3c0.1-0.1,0.1-0.3,0.1-0.5c0-0.2-0.1-0.4-0.2-0.6c-0.1-0.1-0.3-0.2-0.4-0.3c-0.2-0.1-0.4-0.1-0.6-0.2
		c-0.2,0-0.4-0.1-0.6-0.1c-0.2-0.1-0.3-0.1-0.4-0.2c-0.1-0.1-0.2-0.2-0.2-0.4c0-0.2,0.1-0.4,0.2-0.5c0.1-0.1,0.4-0.2,0.6-0.2
		c0.3,0,0.5,0.1,0.7,0.2s0.3,0.3,0.3,0.6h0.4c-0.1-0.4-0.2-0.7-0.5-0.9c-0.3-0.2-0.6-0.3-1-0.3c-0.4,0-0.7,0.1-1,0.3
		c-0.2,0.2-0.3,0.5-0.3,0.8c0,0.2,0.1,0.4,0.2,0.6c0.1,0.1,0.3,0.2,0.4,0.3c0.2,0.1,0.4,0.1,0.6,0.2c0.2,0,0.4,0.1,0.6,0.1
		c0.2,0.1,0.3,0.1,0.4,0.2c0.1,0.1,0.2,0.2,0.2,0.4c0,0.1,0,0.2-0.1,0.3c0,0.1-0.1,0.2-0.2,0.2c-0.1,0.1-0.2,0.1-0.3,0.2
		c-0.1,0-0.3,0.1-0.4,0.1c-0.3,0-0.6-0.1-0.8-0.2c-0.2-0.1-0.3-0.4-0.4-0.7H71.2z M69.4,30.5c0-0.2,0-0.4,0.1-0.6
		c0-0.2,0.1-0.4,0.2-0.5c0.1-0.1,0.2-0.3,0.4-0.3c0.2-0.1,0.4-0.1,0.6-0.1v-0.5c-0.3,0-0.6,0.1-0.8,0.2s-0.3,0.3-0.5,0.6h0v-0.7H69
		v3.8h0.4V30.5z M68.1,30.6c0-0.7-0.1-1.2-0.4-1.6c-0.3-0.4-0.7-0.5-1.2-0.5c-0.3,0-0.5,0.1-0.7,0.2c-0.2,0.1-0.4,0.2-0.5,0.4
		c-0.1,0.2-0.3,0.4-0.3,0.6c-0.1,0.2-0.1,0.5-0.1,0.8c0,0.3,0,0.5,0.1,0.8c0.1,0.2,0.2,0.4,0.3,0.6c0.1,0.2,0.3,0.3,0.5,0.4
		c0.2,0.1,0.5,0.2,0.8,0.2c0.2,0,0.4,0,0.6-0.1c0.2-0.1,0.3-0.2,0.5-0.3c0.1-0.1,0.2-0.2,0.3-0.4c0.1-0.2,0.2-0.3,0.2-0.5h-0.5
		c-0.1,0.3-0.2,0.5-0.4,0.6C67,32,66.7,32,66.4,32c-0.2,0-0.4,0-0.6-0.1c-0.2-0.1-0.3-0.2-0.4-0.3c-0.1-0.1-0.2-0.3-0.2-0.5
		c-0.1-0.2-0.1-0.4-0.1-0.6H68.1z M65.2,30.2c0-0.2,0.1-0.3,0.1-0.5c0.1-0.2,0.1-0.3,0.3-0.4c0.1-0.1,0.2-0.2,0.4-0.3
		s0.3-0.1,0.5-0.1s0.4,0,0.5,0.1c0.2,0.1,0.3,0.2,0.4,0.3c0.1,0.1,0.2,0.3,0.2,0.4c0.1,0.2,0.1,0.3,0.1,0.5H65.2z M62.3,32.3h0.5
		l1.5-3.8h-0.5l-1.2,3.2l-1.2-3.2h-0.5L62.3,32.3z M60.2,27.1h-0.5v0.6h0.5V27.1z M60.2,28.6h-0.4v3.8h0.4V28.6z M56,30.3
		c0-0.1,0-0.3,0-0.4c0-0.1,0-0.2,0.1-0.3c0-0.1,0.1-0.2,0.1-0.3s0.1-0.2,0.2-0.2c0.1-0.1,0.2-0.1,0.3-0.2c0.1,0,0.2-0.1,0.4-0.1
		c0.3,0,0.6,0.1,0.8,0.3c0.2,0.2,0.2,0.4,0.2,0.8v2.5h0.4v-2.5c0-0.2,0-0.3,0-0.4c0-0.1-0.1-0.3-0.2-0.4c-0.1-0.2-0.3-0.3-0.5-0.4
		c-0.2-0.1-0.4-0.1-0.6-0.1c-0.3,0-0.5,0.1-0.7,0.2c-0.2,0.1-0.4,0.3-0.5,0.5v-0.5h-0.4v3.8H56V30.3z M50.4,30.4
		c0,0.7,0.2,1.2,0.5,1.6c0.3,0.4,0.8,0.6,1.5,0.6c0.7,0,1.2-0.2,1.5-0.5c0.3-0.4,0.5-0.9,0.5-1.6v-3.3H54v3.1c0,0.3,0,0.6-0.1,0.8
		c-0.1,0.2-0.1,0.4-0.3,0.6c-0.1,0.2-0.3,0.3-0.5,0.3c-0.2,0.1-0.4,0.1-0.7,0.1c-0.5,0-0.9-0.1-1.2-0.4c-0.2-0.3-0.4-0.8-0.4-1.4
		v-3.1h-0.5V30.4z"/>
	<path class="st1" d="M7.3,19c0.7,0,1.4,0,2,0c0,0,0.1,0,0.1,0c0.1,0,0.1,0,0.1,0.1c0.1,0.6,0.2,1.2,0.3,1.8c0.5,2.1,1.4,4,2.8,5.7
		c1.2,1.4,2.6,2.6,4.3,3.4c1.2,0.6,2.4,1,3.7,1.2c1.1,0.2,2.1,0.3,3.2,0.2c1.6-0.1,3.1-0.4,4.6-1.1c1.6-0.7,3-1.7,4.3-2.9
		c1.8-1.9,3.1-4.1,3.6-6.6c0.1-0.6,0.2-1.1,0.3-1.7c0-0.1,0-0.1,0.2-0.1c1.2,0,2.4,0,3.7,0c0.2,0,0.3,0,0.5,0c0.1,0,0.1,0,0.1,0.1
		c0,0.3,0,0.5-0.1,0.8c-0.1,0.7-0.2,1.4-0.4,2c-0.6,2.6-1.7,4.9-3.4,7c-1.4,1.8-3,3.2-5,4.4c-1.7,1-3.6,1.8-5.6,2.2
		c-0.8,0.2-1.7,0.3-2.5,0.3c-0.7,0-1.4,0.1-2.1,0c-3.8-0.2-7.1-1.5-10.1-3.8c-2.2-1.7-4-3.9-5.2-6.5c-0.7-1.5-1.2-3-1.5-4.7
		c-0.1-0.6-0.2-1.2-0.2-1.8C5,19,5,19,5.2,19C5.9,19,6.6,19,7.3,19"/>
	<path class="st2" d="M25.7,21.2h-0.1c-3.5,0-7,0-10.4,0c-0.5,0-0.8-0.2-1.1-0.6c-0.1-0.2-0.1-0.3-0.1-0.5c0-0.7,0-1.3,0-2
		c0-1.1,0-2.3,0-3.4c0-0.2,0-0.2,0.2-0.2c1.6,0,3.2,0,4.8,0c0.1,0,0.2,0,0.2,0.1c2.2,2.2,4.3,4.3,6.5,6.5
		C25.6,21.1,25.6,21.1,25.7,21.2"/>
	<path class="st2" d="M5,10.5c0-2,0-4,0-6c0-0.2,0-0.2,0.2-0.2C6.8,4.4,8,5.1,8.9,6.4c0.2,0.5,0.4,0.9,0.5,1.4
		c0.1,0.3,0.1,0.7,0.1,1c0,2.5,0,5.1,0,7.6c0,0,0,0,0,0c0,0.2,0,0.2-0.2,0.2c-1.4,0-2.8,0-4.2,0c0,0-0.1,0-0.1,0
		c-0.1,0-0.1,0-0.1-0.1c0,0,0-0.1,0-0.1C5,14.5,5,12.5,5,10.5"/>
	<path class="st2" d="M41,10.5c0,2,0,4,0,6c0,0.2,0,0.2-0.2,0.2c-1.4,0-2.7,0-4.1,0c0,0-0.1,0-0.1,0c-0.1,0-0.1,0-0.1-0.1
		c0,0,0-0.1,0-0.1c0-2.5,0-5.1,0-7.6c0-1.1,0.3-2.1,1-2.9c0.8-0.9,1.7-1.4,2.9-1.6c0.1,0,0.3,0,0.4,0c0.1,0,0.1,0,0.1,0.1
		c0,0,0,0.1,0,0.1C41,6.5,41,8.5,41,10.5"/>
	<path class="st2" d="M25,18.8c0.5-0.5,1-1.1,1.5-1.6c-0.8-0.8-1.6-1.6-2.3-2.4c0,0-0.1,0.1-0.1,0.1c-0.5,0.5-0.9,0.9-1.4,1.4
		c0,0-0.1,0-0.1,0.1c0,0-0.1,0-0.1,0c0,0,0,0,0,0c-0.6-0.6-1.3-1.2-1.9-1.9c0,0,0,0-0.1-0.1c0.1,0,0.1,0,0.2,0c2.5,0,4.9,0,7.4,0
		c0.9,0,1.9,0,2.8,0c0.1,0,0.3,0,0.4,0.1c0.4,0.1,0.7,0.5,0.7,0.9c0,0.1,0,0.1,0,0.2c0,1.8,0,3.6,0,5.4c0,0,0,0,0,0
		c0,0.2,0,0.1-0.1,0.1c-1.3,0-2.5,0-3.8,0c-0.3,0-0.5,0-0.8,0c-0.1,0-0.1,0-0.2-0.1C26.5,20.4,25.7,19.6,25,18.8
		C25,18.9,25,18.9,25,18.8"/>
	<path class="st2" d="M23,13.3c-1,0-2.1,0-3.1,0c0,0,0,0-0.1,0c-0.2,0-0.2,0-0.2-0.2c0-0.2,0-0.4,0-0.7c0-1.2,0-2.5,0-3.7
		c0-0.5,0.3-0.9,0.8-1.1c0.1,0,0.2-0.1,0.3-0.1c1.5,0,3,0,4.5,0c0.6,0,1.1,0.4,1.1,1.1c0,1.5,0,3,0,4.4c0,0.1,0,0.1-0.1,0.1
		C25.1,13.3,24.1,13.3,23,13.3"/>
	<path class="st2" d="M23,22.5h3.1c0,0,0.1,0,0.1,0c0.1,0,0.1,0,0.1,0.1c0,1.5,0,2.9,0,4.4c0,0.3-0.1,0.6-0.3,0.8
		c-0.2,0.2-0.4,0.3-0.7,0.3c-1.5,0-3,0-4.5,0c-0.5,0-1-0.4-1.1-0.9c0-0.1,0-0.2,0-0.3c0-1.4,0-2.8,0-4.3c0-0.2,0-0.2,0.2-0.2
		C20.9,22.5,22,22.5,23,22.5"/>
	<path class="st1" d="M51.2,7.6c2.3,0,2.2,2.2,2.2,2.2v7.9c0,1.8,0.1,4.1,3.6,4.1c0.6,0,2.3,0,3.2-1.4c0.3-0.5,0.5-1.1,0.5-2.8V9.8
		c0-2.2,2.3-2.2,2.3-2.2h1.2V18c0,4.9-3.9,6.5-7.3,6.5c-1.7,0-4.7-0.4-6.3-2.9c-0.8-1.3-0.8-2.6-0.8-4.1V7.6H51.2z"/>
	<path class="st1" d="M76.9,9.6v9.9l-1.1-1.9L71,8.7c0,0-0.4-1.1-1.9-1.1h-1.3c0,0-1.7-0.1-1.7,2.3v14.6h1.4c2,0,2-2.2,2-2.2v-9.7
		l4,7.4l1.9,3.5c0,0,0.4,1.1,1.9,1.1h1.3c0,0,1.7,0.1,1.7-2.3V7.7h-1.2C79.1,7.7,76.9,7.6,76.9,9.6"/>
	<path class="st1" d="M92.9,18.2L90.5,11L88,18.2H92.9z M93.4,9.4c0.6,1.8,5.2,15.1,5.2,15.1H95l-1.2-3.6h-6.7l-1.3,3.6h-3.5
		c0,0,4.9-13.4,5.5-15.1c0.4-1.1,1.3-1.6,2-1.7c0.4-0.1,0.9-0.1,1.4,0C92,7.8,93,8.3,93.4,9.4"/>
	<path class="st2" d="M138.3,18.2l-3.1-0.9c-2-0.6-3.4-2.6-3.4-4.7c0-2.8,2.2-5,5-5h6.2v2.2h-4.3c-0.8,0-1.6,0.6-1.6,1.6
		c0,0.6,0.4,1.2,1,1.4l3.1,1c2.1,0.6,3.2,2.8,3.2,5.2c0,3.1-2.5,5.5-5.5,5.5h-6.6V22h5.6c0.8,0,1.8-0.8,1.8-1.9
		C139.6,19.2,139.2,18.5,138.3,18.2"/>
	<path class="st2" d="M123.4,24.5c-3.7,0-6.6-2.6-6.6-5.9V7.6h5v11.5c0,1.4,1.3,2.6,2.9,2.6c1.5,0,2.9-1.2,2.9-2.6V7.6h2.3v11.1
		C129.9,21.9,127,24.5,123.4,24.5"/>
	<path class="st2" d="M108.7,18.2l-3.1-0.9c-1.9-0.6-3.3-2.6-3.3-4.7c0-2.8,2.2-5,5-5h6.2v2.2h-4.3c-0.8,0-1.6,0.6-1.6,1.6
		c0,0.6,0.4,1.2,1,1.4l3,1c2,0.6,3.1,2.8,3.1,5.2c0,3.1-2.4,5.5-5.5,5.5h-6.6V22h5.6c0.8,0,1.8-0.8,1.8-1.9
		C110.1,19.3,109.5,18.5,108.7,18.2"/>
	<path class="st1" d="M102.3,19c0,0.1-0.1,0-0.1,0c-0.5,0-1.1,0-1.6,0c-0.6,0-1-0.2-1.4-0.7c-0.3-0.4-0.7-0.9-1-1.3
		c-0.1-0.1,0-0.1,0.1-0.1c0.6,0,1.2,0,1.8,0c0.6,0,1,0.3,1.3,0.7C101.7,18,102,18.5,102.3,19C102.3,18.9,102.3,18.9,102.3,19"/>
</g>
</svg>
